M48
; DRILL file {KiCad 8.0.2} date 2024-05-20T10:37:40+0200
; FORMAT={-:-/ absolute / inch / decimal}
; #@! TF.CreationDate,2024-05-20T10:37:40+02:00
; #@! TF.GenerationSoftware,Kicad,Pcbnew,8.0.2
; #@! TF.FileFunction,Plated,1,2,PTH
FMAT,2
INCH
; #@! TA.AperFunction,Plated,PTH,ViaDrill
T1C0.0118
; #@! TA.AperFunction,Plated,PTH,ComponentDrill
T2C0.0276
; #@! TA.AperFunction,Plated,PTH,ComponentDrill
T3C0.0295
; #@! TA.AperFunction,Plated,PTH,ComponentDrill
T4C0.0315
%
G90
G05
T1
X4.0072Y-4.3025
X4.035Y-4.3297
X4.0816Y-4.4509
X4.1066Y-3.891
X4.5709Y-3.9392
X4.6128Y-3.4346
X4.7136Y-3.4704
X4.755Y-4.1152
X4.8749Y-3.8673
X4.9043Y-3.5884
X4.9131Y-3.5257
X4.9652Y-3.8745
X5.0949Y-3.4346
X5.2313Y-4.1096
X5.5397Y-4.3141
X5.5628Y-4.3679
X5.5712Y-4.3185
X5.6091Y-3.8916
X5.7076Y-3.4118
X5.7741Y-4.0116
X5.777Y-3.5848
X5.7881Y-4.3679
X5.8369Y-4.145
X5.8801Y-3.9462
X5.8846Y-4.2047
X5.9615Y-3.9213
X6.0944Y-3.9866
X6.302Y-4.4324
T2
X4.4358Y-3.8116
X4.4358Y-4.1116
T3
X4.552Y-3.8081
X4.552Y-4.1081
X4.6882Y-3.8077
X4.6882Y-4.1077
X4.8244Y-3.8081
X4.8244Y-4.1081
T4
X3.224Y-2.9567
X3.224Y-3.0567
X3.224Y-3.1567
X3.224Y-3.2567
X3.224Y-3.3567
X3.224Y-3.4567
X3.224Y-3.5567
X3.224Y-3.6567
X3.224Y-3.7567
X3.224Y-3.8567
X3.224Y-3.9567
X3.224Y-4.0567
X3.224Y-4.1567
X3.224Y-4.2567
X3.824Y-2.9567
X3.824Y-3.0567
X3.824Y-3.1567
X3.824Y-3.2567
X3.824Y-3.3567
X3.824Y-3.4567
X3.824Y-3.5567
X3.824Y-3.6567
X3.824Y-3.7567
X3.824Y-3.8567
X3.824Y-3.9567
X3.824Y-4.0567
X3.824Y-4.1567
X3.824Y-4.2567
X3.998Y-3.0425
X3.998Y-3.1409
X4.1522Y-3.0378
X4.1522Y-3.1362
X4.161Y-3.4449
X4.161Y-3.5433
X4.2756Y-3.3433
X4.2756Y-3.6433
X4.278Y-2.9413
X4.278Y-3.2413
X4.3756Y-3.3433
X4.3756Y-3.6433
X4.378Y-2.9413
X4.378Y-3.2413
X4.4756Y-3.3433
X4.4756Y-3.6433
X4.478Y-2.9413
X4.478Y-3.2413
X4.5756Y-3.3433
X4.5756Y-3.6433
X4.578Y-2.9413
X4.578Y-3.2413
X4.6756Y-3.3433
X4.6756Y-3.6433
X4.678Y-2.9413
X4.678Y-3.2413
X4.7756Y-3.3433
X4.7756Y-3.6433
X4.778Y-2.9413
X4.778Y-3.2413
X4.8756Y-3.3433
X4.8756Y-3.6433
X4.878Y-2.9413
X4.878Y-3.2413
X4.9756Y-3.3433
X4.9756Y-3.6433
X4.978Y-2.9413
X4.978Y-3.2413
X5.172Y-3.8843
X5.172Y-3.9827
X5.2933Y-3.7894
X5.2933Y-4.0894
X5.3801Y-3.4382
X5.3801Y-3.5366
X5.3862Y-3.035
X5.3862Y-3.1335
X5.3933Y-3.7894
X5.3933Y-4.0894
X5.4933Y-3.7894
X5.4933Y-4.0894
X5.4967Y-3.337
X5.4967Y-3.637
X5.4992Y-2.9346
X5.4992Y-3.2346
X5.5933Y-3.7894
X5.5933Y-4.0894
X5.5967Y-3.337
X5.5967Y-3.637
X5.5992Y-2.9346
X5.5992Y-3.2346
X5.6933Y-3.7894
X5.6933Y-4.0894
X5.6967Y-3.337
X5.6967Y-3.637
X5.6992Y-2.9346
X5.6992Y-3.2346
X5.7933Y-3.7894
X5.7933Y-4.0894
X5.7967Y-3.337
X5.7967Y-3.637
X5.7992Y-2.9346
X5.7992Y-3.2346
X5.8933Y-3.7894
X5.8933Y-4.0894
X5.8967Y-3.337
X5.8967Y-3.637
X5.8992Y-2.9346
X5.8992Y-3.2346
X5.9933Y-3.7894
X5.9933Y-4.0894
X5.9967Y-3.337
X5.9967Y-3.637
X5.9992Y-2.9346
X5.9992Y-3.2346
X6.0933Y-3.7894
X6.0933Y-4.0894
X6.0967Y-3.337
X6.0967Y-3.637
X6.0992Y-2.9346
X6.0992Y-3.2346
X6.1933Y-3.7894
X6.1933Y-4.0894
X6.1967Y-3.337
X6.1967Y-3.637
X6.1992Y-2.9346
X6.1992Y-3.2346
M30
