%TF.GenerationSoftware,KiCad,Pcbnew,8.0.2*%
%TF.CreationDate,2024-05-20T10:37:38+02:00*%
%TF.ProjectId,zx81-external-rom-with-display,7a783831-2d65-4787-9465-726e616c2d72,rev?*%
%TF.SameCoordinates,Original*%
%TF.FileFunction,Copper,L1,Top*%
%TF.FilePolarity,Positive*%
%FSLAX46Y46*%
G04 Gerber Fmt 4.6, Leading zero omitted, Abs format (unit mm)*
G04 Created by KiCad (PCBNEW 8.0.2) date 2024-05-20 10:37:38*
%MOMM*%
%LPD*%
G01*
G04 APERTURE LIST*
%TA.AperFunction,EtchedComponent*%
%ADD10C,0.000000*%
%TD*%
%TA.AperFunction,ComponentPad*%
%ADD11C,1.600000*%
%TD*%
%TA.AperFunction,ComponentPad*%
%ADD12R,1.600000X1.600000*%
%TD*%
%TA.AperFunction,ComponentPad*%
%ADD13O,1.600000X1.600000*%
%TD*%
%TA.AperFunction,ComponentPad*%
%ADD14C,1.400000*%
%TD*%
%TA.AperFunction,ComponentPad*%
%ADD15O,1.400000X1.400000*%
%TD*%
%TA.AperFunction,ComponentPad*%
%ADD16R,1.500000X1.500000*%
%TD*%
%TA.AperFunction,ComponentPad*%
%ADD17O,1.500000X1.500000*%
%TD*%
%TA.AperFunction,ConnectorPad*%
%ADD18R,1.778000X9.620000*%
%TD*%
%TA.AperFunction,ViaPad*%
%ADD19C,0.600000*%
%TD*%
%TA.AperFunction,Conductor*%
%ADD20C,0.200000*%
%TD*%
G04 APERTURE END LIST*
D10*
%TA.AperFunction,EtchedComponent*%
%TO.C,G200*%
G36*
X86673239Y-117491726D02*
G01*
X86664180Y-117500785D01*
X86655122Y-117491726D01*
X86664180Y-117482668D01*
X86673239Y-117491726D01*
G37*
%TD.AperFunction*%
%TA.AperFunction,EtchedComponent*%
G36*
X89209615Y-117491726D02*
G01*
X89200557Y-117500785D01*
X89191498Y-117491726D01*
X89200557Y-117482668D01*
X89209615Y-117491726D01*
G37*
%TD.AperFunction*%
%TA.AperFunction,EtchedComponent*%
G36*
X91782226Y-117491726D02*
G01*
X91773167Y-117500785D01*
X91764109Y-117491726D01*
X91773167Y-117482668D01*
X91782226Y-117491726D01*
G37*
%TD.AperFunction*%
%TA.AperFunction,EtchedComponent*%
G36*
X91239722Y-117518902D02*
G01*
X91264255Y-117583892D01*
X91289639Y-117642455D01*
X91302832Y-117668367D01*
X91320634Y-117702735D01*
X91316375Y-117715988D01*
X91286461Y-117718188D01*
X91285033Y-117718188D01*
X91251749Y-117712378D01*
X91239748Y-117687553D01*
X91238717Y-117664907D01*
X91233132Y-117623068D01*
X91220600Y-117600428D01*
X91210112Y-117577107D01*
X91204277Y-117530839D01*
X91203806Y-117504245D01*
X91205130Y-117419258D01*
X91239722Y-117518902D01*
G37*
%TD.AperFunction*%
%TA.AperFunction,EtchedComponent*%
G36*
X88623333Y-117281283D02*
G01*
X88629540Y-117321074D01*
X88629872Y-117334214D01*
X88637028Y-117394150D01*
X88655677Y-117472864D01*
X88681593Y-117556490D01*
X88710546Y-117631161D01*
X88734510Y-117677425D01*
X88748660Y-117702212D01*
X88744300Y-117714128D01*
X88714809Y-117717887D01*
X88677248Y-117718188D01*
X88593638Y-117718188D01*
X88593638Y-117491726D01*
X88595033Y-117393622D01*
X88599010Y-117320666D01*
X88605253Y-117276789D01*
X88611755Y-117265264D01*
X88623333Y-117281283D01*
G37*
%TD.AperFunction*%
%TA.AperFunction,EtchedComponent*%
G36*
X85929365Y-117267249D02*
G01*
X85953032Y-117284843D01*
X85982855Y-117320316D01*
X86024933Y-117378776D01*
X86043674Y-117405598D01*
X86087578Y-117469870D01*
X86122345Y-117523248D01*
X86143505Y-117558727D01*
X86147846Y-117568924D01*
X86155739Y-117592297D01*
X86175501Y-117634046D01*
X86184116Y-117650518D01*
X86220385Y-117718188D01*
X86011447Y-117718188D01*
X85802509Y-117718188D01*
X85807595Y-117496256D01*
X85812682Y-117274323D01*
X85876092Y-117265259D01*
X85905751Y-117262424D01*
X85929365Y-117267249D01*
G37*
%TD.AperFunction*%
%TA.AperFunction,EtchedComponent*%
G36*
X87077967Y-117472241D02*
G01*
X87095034Y-117522991D01*
X87098643Y-117534427D01*
X87121065Y-117597917D01*
X87144556Y-117652807D01*
X87157593Y-117676847D01*
X87172757Y-117703006D01*
X87167774Y-117714853D01*
X87136134Y-117718056D01*
X87110130Y-117718188D01*
X87035578Y-117718188D01*
X87035578Y-117631227D01*
X87031666Y-117575725D01*
X87021756Y-117534644D01*
X87015650Y-117524337D01*
X87008334Y-117500831D01*
X87031251Y-117468878D01*
X87051563Y-117450522D01*
X87065306Y-117449864D01*
X87077967Y-117472241D01*
G37*
%TD.AperFunction*%
%TA.AperFunction,EtchedComponent*%
G36*
X83339715Y-115343105D02*
G01*
X83339715Y-115594984D01*
X82686060Y-116398419D01*
X82032406Y-117201855D01*
X82722294Y-117206599D01*
X83412183Y-117211344D01*
X83412183Y-117464766D01*
X83412183Y-117718188D01*
X82307048Y-117718188D01*
X81201912Y-117718188D01*
X81201912Y-117473810D01*
X81201912Y-117229432D01*
X81854789Y-116418496D01*
X82507667Y-115607561D01*
X81891023Y-115602794D01*
X81274380Y-115598027D01*
X81274380Y-115344627D01*
X81274380Y-115091227D01*
X82307048Y-115091227D01*
X83339715Y-115091227D01*
X83339715Y-115343105D01*
G37*
%TD.AperFunction*%
%TA.AperFunction,EtchedComponent*%
G36*
X85731156Y-117011626D02*
G01*
X85732470Y-117049745D01*
X85735635Y-117065747D01*
X85735685Y-117065748D01*
X85752848Y-117058094D01*
X85793393Y-117038277D01*
X85846940Y-117011397D01*
X85910848Y-116982940D01*
X85969767Y-116963336D01*
X86005464Y-116957275D01*
X86034508Y-116959000D01*
X86049966Y-116969963D01*
X86056122Y-116998851D01*
X86057259Y-117054347D01*
X86057262Y-117062307D01*
X86057262Y-117167338D01*
X85944030Y-117160384D01*
X85874864Y-117159698D01*
X85813160Y-117165122D01*
X85780978Y-117172665D01*
X85731156Y-117191899D01*
X85731156Y-117473161D01*
X85731156Y-117754422D01*
X85613396Y-117754422D01*
X85495635Y-117754422D01*
X85495635Y-117355849D01*
X85495635Y-116957275D01*
X85613396Y-116957275D01*
X85731156Y-116957275D01*
X85731156Y-117011626D01*
G37*
%TD.AperFunction*%
%TA.AperFunction,EtchedComponent*%
G36*
X88267533Y-117011626D02*
G01*
X88268846Y-117049745D01*
X88272011Y-117065747D01*
X88272062Y-117065748D01*
X88289224Y-117058094D01*
X88329770Y-117038277D01*
X88383317Y-117011397D01*
X88447224Y-116982940D01*
X88506143Y-116963336D01*
X88541840Y-116957275D01*
X88570885Y-116959000D01*
X88586343Y-116969963D01*
X88592499Y-116998851D01*
X88593636Y-117054347D01*
X88593638Y-117062307D01*
X88593638Y-117167338D01*
X88480407Y-117160384D01*
X88411241Y-117159698D01*
X88349537Y-117165122D01*
X88317354Y-117172665D01*
X88267533Y-117191899D01*
X88267533Y-117473161D01*
X88267533Y-117754422D01*
X88149772Y-117754422D01*
X88032012Y-117754422D01*
X88032012Y-117355849D01*
X88032012Y-116957275D01*
X88149772Y-116957275D01*
X88267533Y-116957275D01*
X88267533Y-117011626D01*
G37*
%TD.AperFunction*%
%TA.AperFunction,EtchedComponent*%
G36*
X88068246Y-115326748D02*
G01*
X88068246Y-115562268D01*
X87850842Y-115562268D01*
X87633438Y-115562268D01*
X87633438Y-116205421D01*
X87633438Y-116848574D01*
X87520207Y-116849369D01*
X87390818Y-116860728D01*
X87285211Y-116894868D01*
X87199174Y-116954890D01*
X87128497Y-117043894D01*
X87068966Y-117164980D01*
X87059961Y-117188155D01*
X87050802Y-117204162D01*
X87040578Y-117198716D01*
X87026571Y-117167468D01*
X87006066Y-117106067D01*
X87003386Y-117097570D01*
X86992907Y-117063073D01*
X86984373Y-117030192D01*
X86977590Y-116994908D01*
X86972359Y-116953201D01*
X86968485Y-116901053D01*
X86965770Y-116834444D01*
X86964018Y-116749356D01*
X86963034Y-116641768D01*
X86962619Y-116507663D01*
X86962577Y-116343021D01*
X86962623Y-116264301D01*
X86963110Y-115562268D01*
X86745707Y-115562268D01*
X86528303Y-115562268D01*
X86528303Y-115326748D01*
X86528303Y-115091227D01*
X87298274Y-115091227D01*
X88068246Y-115091227D01*
X88068246Y-115326748D01*
G37*
%TD.AperFunction*%
%TA.AperFunction,EtchedComponent*%
G36*
X87605784Y-117234943D02*
G01*
X87633129Y-117237989D01*
X87697165Y-117249458D01*
X87751724Y-117265595D01*
X87773208Y-117275783D01*
X87822735Y-117296318D01*
X87871962Y-117299842D01*
X87908003Y-117286484D01*
X87916758Y-117274323D01*
X87932463Y-117246749D01*
X87944590Y-117255206D01*
X87953141Y-117299699D01*
X87958119Y-117380237D01*
X87959544Y-117482668D01*
X87958200Y-117583394D01*
X87954359Y-117658666D01*
X87948308Y-117704748D01*
X87941427Y-117718188D01*
X87930912Y-117701933D01*
X87924375Y-117660536D01*
X87923310Y-117631227D01*
X87920076Y-117576428D01*
X87911876Y-117536716D01*
X87906727Y-117527054D01*
X87891593Y-117496843D01*
X87884081Y-117464551D01*
X87864482Y-117427193D01*
X87823175Y-117413175D01*
X87766812Y-117423282D01*
X87721580Y-117445364D01*
X87658483Y-117471190D01*
X87586920Y-117481972D01*
X87520180Y-117477224D01*
X87471553Y-117456458D01*
X87469393Y-117454594D01*
X87450515Y-117415469D01*
X87452379Y-117360448D01*
X87473010Y-117301861D01*
X87500172Y-117262379D01*
X87524686Y-117241506D01*
X87555872Y-117233098D01*
X87605784Y-117234943D01*
G37*
%TD.AperFunction*%
%TA.AperFunction,EtchedComponent*%
G36*
X90930728Y-116839515D02*
G01*
X90930728Y-116957275D01*
X91048488Y-116957275D01*
X91166249Y-116957275D01*
X91166249Y-117047860D01*
X91166249Y-117138445D01*
X91048488Y-117138445D01*
X90930728Y-117138445D01*
X90930995Y-117315086D01*
X90933035Y-117419270D01*
X90940636Y-117492583D01*
X90956568Y-117540282D01*
X90983600Y-117567622D01*
X91024502Y-117579859D01*
X91071837Y-117582311D01*
X91166313Y-117582311D01*
X91166281Y-117665996D01*
X91164749Y-117717229D01*
X91154923Y-117743295D01*
X91128878Y-117755259D01*
X91098310Y-117760911D01*
X90972964Y-117770216D01*
X90860233Y-117756427D01*
X90846175Y-117752660D01*
X90795889Y-117727306D01*
X90747719Y-117686893D01*
X90742002Y-117680436D01*
X90723105Y-117656362D01*
X90710128Y-117632243D01*
X90701960Y-117600989D01*
X90697491Y-117555513D01*
X90695611Y-117488724D01*
X90695209Y-117393533D01*
X90695207Y-117381634D01*
X90695207Y-117138445D01*
X90640856Y-117138445D01*
X90608682Y-117136466D01*
X90592638Y-117124298D01*
X90587116Y-117092593D01*
X90586505Y-117047860D01*
X90587693Y-116994236D01*
X90594994Y-116967496D01*
X90614017Y-116958293D01*
X90640856Y-116957275D01*
X90695207Y-116957275D01*
X90695207Y-116839515D01*
X90695207Y-116721755D01*
X90812968Y-116721755D01*
X90930728Y-116721755D01*
X90930728Y-116839515D01*
G37*
%TD.AperFunction*%
%TA.AperFunction,EtchedComponent*%
G36*
X96152598Y-114308016D02*
G01*
X96211826Y-114367245D01*
X96211826Y-116450000D01*
X96211826Y-118532756D01*
X96152598Y-118591984D01*
X96093370Y-118651213D01*
X88344182Y-118654627D01*
X87815953Y-118654825D01*
X87296796Y-118654951D01*
X86787890Y-118655006D01*
X86290415Y-118654993D01*
X85805551Y-118654913D01*
X85334478Y-118654768D01*
X84878377Y-118654560D01*
X84438427Y-118654290D01*
X84015809Y-118653960D01*
X83611703Y-118653573D01*
X83227289Y-118653129D01*
X82863746Y-118652630D01*
X82522256Y-118652079D01*
X82203997Y-118651477D01*
X81910151Y-118650826D01*
X81641898Y-118650127D01*
X81400417Y-118649382D01*
X81186888Y-118648594D01*
X81002492Y-118647763D01*
X80848410Y-118646892D01*
X80725820Y-118645982D01*
X80635903Y-118645035D01*
X80579839Y-118644054D01*
X80558808Y-118643038D01*
X80558759Y-118643020D01*
X80521804Y-118619603D01*
X80480575Y-118582801D01*
X80477233Y-118579266D01*
X80431941Y-118530533D01*
X80431941Y-116450000D01*
X80640286Y-116450000D01*
X80640286Y-118442867D01*
X88321883Y-118442867D01*
X96003481Y-118442867D01*
X96003481Y-116450000D01*
X96003481Y-114457133D01*
X88321883Y-114457133D01*
X80640286Y-114457133D01*
X80640286Y-116450000D01*
X80431941Y-116450000D01*
X80431941Y-116448889D01*
X80431941Y-114457133D01*
X80431941Y-114367245D01*
X80491169Y-114308016D01*
X80550398Y-114248788D01*
X88321883Y-114248788D01*
X96093369Y-114248788D01*
X96152598Y-114308016D01*
G37*
%TD.AperFunction*%
%TA.AperFunction,EtchedComponent*%
G36*
X93050414Y-117201855D02*
G01*
X93050414Y-117754422D01*
X92923595Y-117754422D01*
X92856866Y-117753407D01*
X92818632Y-117748926D01*
X92801180Y-117738825D01*
X92796794Y-117720952D01*
X92796777Y-117719022D01*
X92794775Y-117700124D01*
X92783578Y-117694758D01*
X92755401Y-117703653D01*
X92702455Y-117727534D01*
X92701662Y-117727903D01*
X92612080Y-117761498D01*
X92535027Y-117769435D01*
X92457915Y-117752171D01*
X92423586Y-117738019D01*
X92340494Y-117682250D01*
X92281726Y-117601038D01*
X92246879Y-117493562D01*
X92235967Y-117364016D01*
X92488788Y-117364016D01*
X92496576Y-117436621D01*
X92517104Y-117501369D01*
X92546114Y-117547310D01*
X92565404Y-117561127D01*
X92616851Y-117570658D01*
X92682740Y-117569430D01*
X92743115Y-117558064D01*
X92750900Y-117555358D01*
X92797967Y-117537463D01*
X92792843Y-117333425D01*
X92787718Y-117129387D01*
X92717449Y-117123625D01*
X92627643Y-117130198D01*
X92559277Y-117165631D01*
X92513372Y-117228846D01*
X92490954Y-117318769D01*
X92488788Y-117364016D01*
X92235967Y-117364016D01*
X92235545Y-117359003D01*
X92235548Y-117357675D01*
X92250170Y-117228175D01*
X92292034Y-117120315D01*
X92359530Y-117036101D01*
X92451046Y-116977538D01*
X92564973Y-116946635D01*
X92565473Y-116946569D01*
X92659517Y-116948868D01*
X92719779Y-116964186D01*
X92796777Y-116991902D01*
X92796777Y-116820595D01*
X92796777Y-116649287D01*
X92923595Y-116649287D01*
X93050414Y-116649287D01*
X93050414Y-117201855D01*
G37*
%TD.AperFunction*%
%TA.AperFunction,EtchedComponent*%
G36*
X95052804Y-117197325D02*
G01*
X95085121Y-117284995D01*
X95113912Y-117360523D01*
X95136584Y-117417298D01*
X95150546Y-117448710D01*
X95152785Y-117452366D01*
X95164047Y-117443177D01*
X95183953Y-117404136D01*
X95210604Y-117340055D01*
X95242100Y-117255748D01*
X95276541Y-117156026D01*
X95307116Y-117061448D01*
X95339770Y-116957275D01*
X95463280Y-116957275D01*
X95524904Y-116959098D01*
X95569222Y-116963885D01*
X95586933Y-116970615D01*
X95586956Y-116970863D01*
X95580473Y-116990413D01*
X95562020Y-117039409D01*
X95533223Y-117113708D01*
X95495703Y-117209169D01*
X95451085Y-117321650D01*
X95400992Y-117447008D01*
X95374082Y-117514011D01*
X95161042Y-118043570D01*
X95029694Y-118043932D01*
X94965953Y-118042773D01*
X94919268Y-118039381D01*
X94898643Y-118034453D01*
X94898346Y-118033743D01*
X94905135Y-118013183D01*
X94923067Y-117968584D01*
X94948486Y-117908982D01*
X94952697Y-117899358D01*
X94979100Y-117836591D01*
X94998425Y-117785679D01*
X95006931Y-117756558D01*
X95007048Y-117754944D01*
X95000751Y-117732567D01*
X94983153Y-117681755D01*
X94956193Y-117607800D01*
X94921811Y-117515995D01*
X94881946Y-117411633D01*
X94868764Y-117377524D01*
X94827033Y-117269420D01*
X94789509Y-117171424D01*
X94758279Y-117089051D01*
X94735429Y-117027814D01*
X94723048Y-116993229D01*
X94721716Y-116988980D01*
X94721090Y-116972300D01*
X94735426Y-116962718D01*
X94771742Y-116958340D01*
X94837056Y-116957276D01*
X94839323Y-116957275D01*
X94965697Y-116957275D01*
X95052804Y-117197325D01*
G37*
%TD.AperFunction*%
%TA.AperFunction,EtchedComponent*%
G36*
X87639831Y-116952509D02*
G01*
X87716855Y-116960281D01*
X87773845Y-116971669D01*
X87850842Y-116994906D01*
X87850842Y-117102910D01*
X87849743Y-117160042D01*
X87846889Y-117199192D01*
X87843633Y-117210913D01*
X87825128Y-117202699D01*
X87785832Y-117181726D01*
X87757577Y-117165839D01*
X87662678Y-117127245D01*
X87571643Y-117119885D01*
X87490271Y-117143637D01*
X87449036Y-117172290D01*
X87416817Y-117204794D01*
X87398154Y-117238067D01*
X87388292Y-117284529D01*
X87383248Y-117344120D01*
X87380099Y-117409199D01*
X87383631Y-117450877D01*
X87397834Y-117481886D01*
X87426701Y-117514960D01*
X87441459Y-117529832D01*
X87480316Y-117566423D01*
X87512173Y-117585216D01*
X87551108Y-117590899D01*
X87611200Y-117588158D01*
X87615713Y-117587833D01*
X87710834Y-117572173D01*
X87777691Y-117540388D01*
X87815213Y-117514430D01*
X87839039Y-117501211D01*
X87841050Y-117500785D01*
X87846252Y-117517235D01*
X87849803Y-117559930D01*
X87850842Y-117607714D01*
X87849787Y-117667771D01*
X87843442Y-117701948D01*
X87827034Y-117720595D01*
X87795791Y-117734060D01*
X87791962Y-117735416D01*
X87715021Y-117753392D01*
X87619041Y-117763049D01*
X87520437Y-117763547D01*
X87435622Y-117754045D01*
X87434152Y-117753741D01*
X87329942Y-117715539D01*
X87239384Y-117650790D01*
X87172265Y-117566751D01*
X87165826Y-117554893D01*
X87143332Y-117504381D01*
X87131541Y-117454765D01*
X87128206Y-117392353D01*
X87129660Y-117334667D01*
X87134730Y-117257638D01*
X87144758Y-117203631D01*
X87163404Y-117159458D01*
X87189640Y-117118543D01*
X87266483Y-117037049D01*
X87364229Y-116982792D01*
X87485096Y-116954765D01*
X87560079Y-116950190D01*
X87639831Y-116952509D01*
G37*
%TD.AperFunction*%
%TA.AperFunction,EtchedComponent*%
G36*
X94028731Y-116839515D02*
G01*
X94030253Y-116919679D01*
X94034403Y-116982488D01*
X94040556Y-117020985D01*
X94045812Y-117029743D01*
X94071431Y-117021293D01*
X94113022Y-117000412D01*
X94122809Y-116994838D01*
X94222577Y-116954565D01*
X94321867Y-116946445D01*
X94414686Y-116968234D01*
X94495042Y-117017684D01*
X94556944Y-117092550D01*
X94589268Y-117169655D01*
X94604093Y-117258095D01*
X94607208Y-117361619D01*
X94598632Y-117461027D01*
X94588881Y-117507211D01*
X94555191Y-117579738D01*
X94499489Y-117651641D01*
X94432216Y-117711890D01*
X94363811Y-117749456D01*
X94357728Y-117751416D01*
X94284451Y-117767980D01*
X94217789Y-117768034D01*
X94140589Y-117751091D01*
X94119316Y-117744670D01*
X94065682Y-117731785D01*
X94035508Y-117732888D01*
X94031750Y-117736823D01*
X94011946Y-117745882D01*
X93966170Y-117752235D01*
X93909461Y-117754422D01*
X93793210Y-117754422D01*
X93793210Y-117381032D01*
X94028731Y-117381032D01*
X94029840Y-117459841D01*
X94032831Y-117524632D01*
X94037205Y-117567172D01*
X94040809Y-117579292D01*
X94070279Y-117589219D01*
X94121517Y-117591328D01*
X94181105Y-117586454D01*
X94235622Y-117575431D01*
X94261624Y-117565553D01*
X94313929Y-117521711D01*
X94344494Y-117453769D01*
X94354823Y-117358316D01*
X94354836Y-117354097D01*
X94346394Y-117272398D01*
X94323474Y-117204640D01*
X94289691Y-117159793D01*
X94272498Y-117149699D01*
X94214363Y-117138956D01*
X94146456Y-117141869D01*
X94087161Y-117156909D01*
X94068996Y-117166648D01*
X94050750Y-117182195D01*
X94039024Y-117203099D01*
X94032395Y-117236938D01*
X94029439Y-117291293D01*
X94028733Y-117373744D01*
X94028731Y-117381032D01*
X93793210Y-117381032D01*
X93793210Y-117201855D01*
X93793210Y-116649287D01*
X93910971Y-116649287D01*
X94028731Y-116649287D01*
X94028731Y-116839515D01*
G37*
%TD.AperFunction*%
%TA.AperFunction,EtchedComponent*%
G36*
X92140914Y-114953990D02*
G01*
X92225638Y-114959998D01*
X92302139Y-114966686D01*
X92359708Y-114973055D01*
X92380964Y-114976360D01*
X92434437Y-114987054D01*
X92434437Y-115213365D01*
X92434259Y-115307086D01*
X92433013Y-115370170D01*
X92429635Y-115408211D01*
X92423056Y-115426806D01*
X92412213Y-115431551D01*
X92396038Y-115428042D01*
X92393674Y-115427327D01*
X92357565Y-115420657D01*
X92296256Y-115413474D01*
X92220739Y-115406987D01*
X92189858Y-115404910D01*
X92066502Y-115403545D01*
X91972888Y-115418254D01*
X91905221Y-115451401D01*
X91859704Y-115505351D01*
X91832539Y-115582467D01*
X91824413Y-115632445D01*
X91813413Y-115725321D01*
X92060515Y-115725321D01*
X92307618Y-115725321D01*
X92307618Y-115942725D01*
X92307618Y-116160129D01*
X92072097Y-116160129D01*
X91836577Y-116160129D01*
X91836577Y-116504351D01*
X91836577Y-116848574D01*
X91686140Y-116848574D01*
X91545994Y-116861036D01*
X91430635Y-116898918D01*
X91338315Y-116962966D01*
X91291408Y-117016792D01*
X91260339Y-117058382D01*
X91244738Y-117072872D01*
X91239306Y-117062858D01*
X91238717Y-117042589D01*
X91232408Y-117003164D01*
X91220600Y-116984451D01*
X91214440Y-116962681D01*
X91209424Y-116907540D01*
X91205677Y-116821878D01*
X91203323Y-116708545D01*
X91202483Y-116570389D01*
X91202483Y-116566691D01*
X91202483Y-116160129D01*
X91066605Y-116160129D01*
X90930728Y-116160129D01*
X90930728Y-115942725D01*
X90930728Y-115725321D01*
X91064341Y-115725321D01*
X91197953Y-115725321D01*
X91209277Y-115668706D01*
X91217704Y-115606792D01*
X91220600Y-115552854D01*
X91226013Y-115504352D01*
X91240105Y-115437285D01*
X91257021Y-115375700D01*
X91314431Y-115246561D01*
X91399591Y-115140507D01*
X91512208Y-115057678D01*
X91651988Y-114998214D01*
X91818637Y-114962255D01*
X92011862Y-114949941D01*
X92140914Y-114953990D01*
G37*
%TD.AperFunction*%
%TA.AperFunction,EtchedComponent*%
G36*
X86713533Y-116954681D02*
G01*
X86791989Y-116972705D01*
X86854060Y-117006297D01*
X86901966Y-117050668D01*
X86941918Y-117101388D01*
X86967458Y-117154360D01*
X86983608Y-117222457D01*
X86991314Y-117279739D01*
X87004024Y-117392083D01*
X86711813Y-117392083D01*
X86602908Y-117392297D01*
X86525045Y-117393364D01*
X86473034Y-117395924D01*
X86441682Y-117400615D01*
X86425799Y-117408075D01*
X86420193Y-117418943D01*
X86419601Y-117428031D01*
X86431176Y-117463371D01*
X86460138Y-117508354D01*
X86472466Y-117523145D01*
X86500941Y-117552894D01*
X86527438Y-117570513D01*
X86562395Y-117579173D01*
X86616253Y-117582045D01*
X86667223Y-117582311D01*
X86752771Y-117579568D01*
X86815699Y-117569691D01*
X86869320Y-117550207D01*
X86886671Y-117541548D01*
X86933751Y-117517740D01*
X86966221Y-117503056D01*
X86973631Y-117500785D01*
X86977847Y-117517160D01*
X86979016Y-117559512D01*
X86977602Y-117603214D01*
X86973393Y-117661586D01*
X86964219Y-117694736D01*
X86943383Y-117713633D01*
X86904188Y-117729248D01*
X86899701Y-117730808D01*
X86805186Y-117753117D01*
X86692538Y-117764072D01*
X86577803Y-117763163D01*
X86477025Y-117749883D01*
X86456854Y-117744843D01*
X86341930Y-117698987D01*
X86256871Y-117633568D01*
X86200627Y-117547063D01*
X86172147Y-117437951D01*
X86168923Y-117327518D01*
X86175185Y-117250577D01*
X86175945Y-117247147D01*
X86402261Y-117247147D01*
X86573984Y-117247147D01*
X86655922Y-117246171D01*
X86707742Y-117242602D01*
X86735523Y-117235477D01*
X86745345Y-117223834D01*
X86745707Y-117219972D01*
X86730361Y-117173961D01*
X86690129Y-117141959D01*
X86633721Y-117124399D01*
X86569846Y-117121716D01*
X86507212Y-117134342D01*
X86454530Y-117162712D01*
X86421987Y-117203852D01*
X86402261Y-117247147D01*
X86175945Y-117247147D01*
X86187343Y-117195725D01*
X86209495Y-117148859D01*
X86229833Y-117117931D01*
X86304721Y-117036602D01*
X86397553Y-116982638D01*
X86512085Y-116954366D01*
X86609346Y-116948976D01*
X86713533Y-116954681D01*
G37*
%TD.AperFunction*%
%TA.AperFunction,EtchedComponent*%
G36*
X89249910Y-116954681D02*
G01*
X89328365Y-116972705D01*
X89390436Y-117006297D01*
X89438343Y-117050668D01*
X89478294Y-117101388D01*
X89503834Y-117154360D01*
X89519984Y-117222457D01*
X89527691Y-117279739D01*
X89540401Y-117392083D01*
X89248189Y-117392083D01*
X89139285Y-117392297D01*
X89061422Y-117393364D01*
X89009410Y-117395924D01*
X88978058Y-117400615D01*
X88962175Y-117408075D01*
X88956569Y-117418943D01*
X88955978Y-117428031D01*
X88967553Y-117463371D01*
X88996514Y-117508354D01*
X89008842Y-117523145D01*
X89037318Y-117552894D01*
X89063814Y-117570513D01*
X89098772Y-117579173D01*
X89152629Y-117582045D01*
X89203600Y-117582311D01*
X89289148Y-117579568D01*
X89352076Y-117569691D01*
X89405696Y-117550207D01*
X89423048Y-117541548D01*
X89470128Y-117517740D01*
X89502598Y-117503056D01*
X89510007Y-117500785D01*
X89514224Y-117517160D01*
X89515392Y-117559512D01*
X89513979Y-117603214D01*
X89509770Y-117661586D01*
X89500596Y-117694736D01*
X89479760Y-117713633D01*
X89440564Y-117729248D01*
X89436077Y-117730808D01*
X89341562Y-117753117D01*
X89228915Y-117764072D01*
X89114180Y-117763163D01*
X89013402Y-117749883D01*
X88993231Y-117744843D01*
X88878307Y-117698987D01*
X88793248Y-117633568D01*
X88737003Y-117547063D01*
X88708524Y-117437951D01*
X88705299Y-117327518D01*
X88711562Y-117250577D01*
X88712322Y-117247147D01*
X88938637Y-117247147D01*
X89110360Y-117247147D01*
X89192298Y-117246171D01*
X89244118Y-117242602D01*
X89271900Y-117235477D01*
X89281721Y-117223834D01*
X89282083Y-117219972D01*
X89266737Y-117173961D01*
X89226506Y-117141959D01*
X89170098Y-117124399D01*
X89106222Y-117121716D01*
X89043589Y-117134342D01*
X88990907Y-117162712D01*
X88958364Y-117203852D01*
X88938637Y-117247147D01*
X88712322Y-117247147D01*
X88723720Y-117195725D01*
X88745872Y-117148859D01*
X88766210Y-117117931D01*
X88841098Y-117036602D01*
X88933930Y-116982638D01*
X89048462Y-116954366D01*
X89145722Y-116948976D01*
X89249910Y-116954681D01*
G37*
%TD.AperFunction*%
%TA.AperFunction,EtchedComponent*%
G36*
X91822520Y-116954681D02*
G01*
X91900976Y-116972705D01*
X91963047Y-117006297D01*
X92010953Y-117050668D01*
X92050905Y-117101388D01*
X92076445Y-117154360D01*
X92092595Y-117222457D01*
X92100301Y-117279739D01*
X92113012Y-117392083D01*
X91820800Y-117392083D01*
X91711895Y-117392297D01*
X91634033Y-117393364D01*
X91582021Y-117395924D01*
X91550669Y-117400615D01*
X91534786Y-117408075D01*
X91529180Y-117418943D01*
X91528588Y-117428031D01*
X91540164Y-117463371D01*
X91569125Y-117508354D01*
X91581453Y-117523145D01*
X91609928Y-117552894D01*
X91636425Y-117570513D01*
X91671382Y-117579173D01*
X91725240Y-117582045D01*
X91776210Y-117582311D01*
X91861758Y-117579568D01*
X91924686Y-117569691D01*
X91978307Y-117550207D01*
X91995658Y-117541548D01*
X92042738Y-117517740D01*
X92075208Y-117503056D01*
X92082618Y-117500785D01*
X92086835Y-117517160D01*
X92088003Y-117559512D01*
X92086589Y-117603214D01*
X92082380Y-117661586D01*
X92073206Y-117694736D01*
X92052371Y-117713633D01*
X92013175Y-117729248D01*
X92008688Y-117730808D01*
X91914173Y-117753117D01*
X91801526Y-117764072D01*
X91686790Y-117763163D01*
X91586012Y-117749883D01*
X91565841Y-117744843D01*
X91450918Y-117698987D01*
X91365858Y-117633568D01*
X91309614Y-117547063D01*
X91281134Y-117437951D01*
X91277910Y-117327518D01*
X91284172Y-117250577D01*
X91284932Y-117247147D01*
X91511248Y-117247147D01*
X91682971Y-117247147D01*
X91764909Y-117246171D01*
X91816729Y-117242602D01*
X91844510Y-117235477D01*
X91854332Y-117223834D01*
X91854694Y-117219972D01*
X91839348Y-117173961D01*
X91799116Y-117141959D01*
X91742708Y-117124399D01*
X91678833Y-117121716D01*
X91616200Y-117134342D01*
X91563517Y-117162712D01*
X91530974Y-117203852D01*
X91511248Y-117247147D01*
X91284932Y-117247147D01*
X91296330Y-117195725D01*
X91318482Y-117148859D01*
X91338820Y-117117931D01*
X91413708Y-117036602D01*
X91506540Y-116982638D01*
X91621072Y-116954366D01*
X91718333Y-116948976D01*
X91822520Y-116954681D01*
G37*
%TD.AperFunction*%
%TA.AperFunction,EtchedComponent*%
G36*
X90185101Y-116954859D02*
G01*
X90236187Y-116963838D01*
X90281359Y-116979304D01*
X90297939Y-116986631D01*
X90345337Y-117011563D01*
X90381097Y-117040232D01*
X90406823Y-117077863D01*
X90424124Y-117129678D01*
X90434604Y-117200902D01*
X90439870Y-117296759D01*
X90441529Y-117422471D01*
X90441570Y-117453701D01*
X90441570Y-117754422D01*
X90314751Y-117754422D01*
X90248104Y-117753445D01*
X90209922Y-117749036D01*
X90192459Y-117738984D01*
X90187967Y-117721073D01*
X90187932Y-117718188D01*
X90186265Y-117692233D01*
X90175958Y-117684807D01*
X90149052Y-117695974D01*
X90109426Y-117718807D01*
X90015013Y-117756094D01*
X89912745Y-117765746D01*
X89815598Y-117746954D01*
X89795089Y-117738405D01*
X89721517Y-117686809D01*
X89677462Y-117614430D01*
X89662544Y-117520639D01*
X89662540Y-117518902D01*
X89666204Y-117491414D01*
X89904301Y-117491414D01*
X89907871Y-117519528D01*
X89923570Y-117546077D01*
X89953984Y-117577982D01*
X89997713Y-117590364D01*
X90024444Y-117591370D01*
X90084253Y-117585895D01*
X90136686Y-117572498D01*
X90141787Y-117570345D01*
X90170171Y-117552533D01*
X90183827Y-117525237D01*
X90187839Y-117476485D01*
X90187932Y-117461643D01*
X90186507Y-117409079D01*
X90178646Y-117383279D01*
X90158971Y-117374786D01*
X90138110Y-117374067D01*
X90057836Y-117383372D01*
X89985738Y-117407923D01*
X89933727Y-117443162D01*
X89922981Y-117456391D01*
X89904301Y-117491414D01*
X89666204Y-117491414D01*
X89673723Y-117435003D01*
X89708986Y-117368430D01*
X89770904Y-117317258D01*
X89862047Y-117279561D01*
X89984989Y-117253412D01*
X90024404Y-117248029D01*
X90094413Y-117239432D01*
X90148957Y-117232862D01*
X90179436Y-117229349D01*
X90182927Y-117229030D01*
X90187427Y-117214290D01*
X90187932Y-117202882D01*
X90171479Y-117166726D01*
X90126635Y-117140326D01*
X90060170Y-117124690D01*
X89978856Y-117120829D01*
X89889462Y-117129749D01*
X89814884Y-117147308D01*
X89763435Y-117162655D01*
X89728716Y-117172520D01*
X89720473Y-117174483D01*
X89718350Y-117158298D01*
X89718802Y-117116555D01*
X89720473Y-117080786D01*
X89725570Y-117024814D01*
X89736384Y-116994135D01*
X89758842Y-116977807D01*
X89780300Y-116970369D01*
X89821260Y-116963122D01*
X89887835Y-116956904D01*
X89969406Y-116952552D01*
X90024879Y-116951127D01*
X90118024Y-116951059D01*
X90185101Y-116954859D01*
G37*
%TD.AperFunction*%
%TA.AperFunction,EtchedComponent*%
G36*
X85999787Y-115091671D02*
G01*
X86095844Y-115093159D01*
X86162931Y-115095920D01*
X86204677Y-115100185D01*
X86224707Y-115106187D01*
X86226828Y-115113873D01*
X86213565Y-115133036D01*
X86181385Y-115178371D01*
X86132585Y-115246676D01*
X86069462Y-115334747D01*
X85994313Y-115439381D01*
X85909435Y-115557377D01*
X85817124Y-115685531D01*
X85772835Y-115746958D01*
X85678431Y-115878123D01*
X85590961Y-116000171D01*
X85512635Y-116109981D01*
X85445663Y-116204429D01*
X85392256Y-116280393D01*
X85354623Y-116334751D01*
X85334976Y-116364379D01*
X85332582Y-116368897D01*
X85342438Y-116386946D01*
X85369644Y-116429280D01*
X85410661Y-116490577D01*
X85461951Y-116565518D01*
X85495635Y-116614032D01*
X85551282Y-116694289D01*
X85598765Y-116763767D01*
X85634555Y-116817222D01*
X85655122Y-116849409D01*
X85658688Y-116856315D01*
X85642195Y-116861580D01*
X85599181Y-116866754D01*
X85545457Y-116870355D01*
X85432226Y-116875749D01*
X85423167Y-117246185D01*
X85414109Y-117616621D01*
X85162537Y-117231606D01*
X84910965Y-116846590D01*
X84620719Y-117282389D01*
X84330473Y-117718188D01*
X83960843Y-117718188D01*
X83832121Y-117717743D01*
X83735997Y-117716254D01*
X83668844Y-117713491D01*
X83627037Y-117709222D01*
X83606948Y-117703217D01*
X83604767Y-117695542D01*
X83617794Y-117676359D01*
X83649515Y-117630744D01*
X83697710Y-117561858D01*
X83760161Y-117472860D01*
X83834649Y-117366910D01*
X83918956Y-117247167D01*
X84010864Y-117116792D01*
X84068970Y-117034442D01*
X84519622Y-116395988D01*
X84077962Y-115765428D01*
X83983767Y-115630886D01*
X83895811Y-115505143D01*
X83816318Y-115391385D01*
X83747513Y-115292803D01*
X83691619Y-115212584D01*
X83650863Y-115153916D01*
X83627467Y-115119988D01*
X83622817Y-115113047D01*
X83626446Y-115105507D01*
X83650077Y-115099802D01*
X83697019Y-115095743D01*
X83770586Y-115093138D01*
X83874087Y-115091794D01*
X83995386Y-115091506D01*
X84381441Y-115091786D01*
X84653196Y-115498359D01*
X84725208Y-115605621D01*
X84790718Y-115702289D01*
X84847035Y-115784467D01*
X84891469Y-115848257D01*
X84921330Y-115889763D01*
X84933927Y-115905089D01*
X84934009Y-115905103D01*
X84946222Y-115890817D01*
X84976111Y-115850428D01*
X85020953Y-115787778D01*
X85078025Y-115706710D01*
X85144601Y-115611067D01*
X85217960Y-115504692D01*
X85222381Y-115498250D01*
X85501694Y-115091227D01*
X85871132Y-115091227D01*
X85999787Y-115091671D01*
G37*
%TD.AperFunction*%
%TA.AperFunction,EtchedComponent*%
G36*
X89978082Y-115679546D02*
G01*
X90138875Y-115711439D01*
X90273738Y-115768442D01*
X90383368Y-115851090D01*
X90468463Y-115959918D01*
X90529720Y-116095463D01*
X90533074Y-116105778D01*
X90548326Y-116161651D01*
X90559947Y-116224943D01*
X90568712Y-116302705D01*
X90575401Y-116401992D01*
X90580792Y-116529856D01*
X90581216Y-116542292D01*
X90584931Y-116656659D01*
X90586937Y-116739957D01*
X90586792Y-116797331D01*
X90584055Y-116833925D01*
X90578285Y-116854882D01*
X90569039Y-116865347D01*
X90555876Y-116870462D01*
X90552982Y-116871231D01*
X90531143Y-116881120D01*
X90519382Y-116902333D01*
X90514703Y-116944063D01*
X90514038Y-116990744D01*
X90516825Y-117050559D01*
X90524061Y-117094680D01*
X90532155Y-117111270D01*
X90546307Y-117136306D01*
X90550272Y-117165621D01*
X90557110Y-117203558D01*
X90568388Y-117219972D01*
X90575627Y-117242022D01*
X90581323Y-117294731D01*
X90585080Y-117372540D01*
X90586503Y-117469891D01*
X90586505Y-117474678D01*
X90586216Y-117572707D01*
X90584785Y-117640184D01*
X90581366Y-117682790D01*
X90575114Y-117706205D01*
X90565185Y-117716111D01*
X90550732Y-117718188D01*
X90550272Y-117718188D01*
X90535635Y-117716231D01*
X90525578Y-117706557D01*
X90519245Y-117683463D01*
X90515782Y-117641245D01*
X90514331Y-117574199D01*
X90514038Y-117476660D01*
X90508274Y-117303608D01*
X90489826Y-117162604D01*
X90456957Y-117051157D01*
X90407928Y-116966775D01*
X90341004Y-116906967D01*
X90254447Y-116869240D01*
X90146520Y-116851103D01*
X90076192Y-116848574D01*
X89959597Y-116848574D01*
X89939517Y-116603929D01*
X89927418Y-116480828D01*
X89912671Y-116388161D01*
X89893062Y-116320130D01*
X89866380Y-116270937D01*
X89830411Y-116234785D01*
X89788742Y-116208853D01*
X89716762Y-116186573D01*
X89623195Y-116179353D01*
X89519086Y-116186509D01*
X89415482Y-116207355D01*
X89331905Y-116237205D01*
X89227732Y-116284943D01*
X89227732Y-116566758D01*
X89227732Y-116848574D01*
X89095412Y-116848574D01*
X88961175Y-116863002D01*
X88846515Y-116905510D01*
X88754047Y-116974927D01*
X88718798Y-117016792D01*
X88687729Y-117058382D01*
X88672127Y-117072872D01*
X88666695Y-117062858D01*
X88666106Y-117042589D01*
X88659798Y-117003164D01*
X88647989Y-116984451D01*
X88633837Y-116959415D01*
X88629872Y-116930100D01*
X88623033Y-116892163D01*
X88611755Y-116875749D01*
X88606308Y-116854304D01*
X88601758Y-116798427D01*
X88598161Y-116709915D01*
X88595574Y-116590559D01*
X88594052Y-116442154D01*
X88593638Y-116294937D01*
X88593638Y-115725321D01*
X88910685Y-115725321D01*
X89227732Y-115725321D01*
X89227732Y-115834698D01*
X89227732Y-115944075D01*
X89337913Y-115869253D01*
X89510621Y-115769033D01*
X89680624Y-115704725D01*
X89847713Y-115676391D01*
X89978082Y-115679546D01*
G37*
%TD.AperFunction*%
%TA.AperFunction,EtchedComponent*%
G36*
X93782683Y-115681710D02*
G01*
X93971579Y-115715122D01*
X94145076Y-115774143D01*
X94298715Y-115857654D01*
X94422292Y-115958728D01*
X94537234Y-116097954D01*
X94621308Y-116255179D01*
X94674792Y-116431132D01*
X94697963Y-116626540D01*
X94699059Y-116682801D01*
X94697906Y-116766539D01*
X94693668Y-116821408D01*
X94685179Y-116854720D01*
X94671272Y-116873789D01*
X94668205Y-116876199D01*
X94649253Y-116896565D01*
X94647503Y-116925610D01*
X94657802Y-116965396D01*
X94669057Y-117029998D01*
X94656985Y-117093377D01*
X94655422Y-117097976D01*
X94632592Y-117163920D01*
X94621845Y-117110420D01*
X94592540Y-117034450D01*
X94539884Y-116958304D01*
X94473856Y-116896017D01*
X94464957Y-116889768D01*
X94417333Y-116864546D01*
X94361804Y-116851912D01*
X94287557Y-116848574D01*
X94220871Y-116851418D01*
X94164923Y-116858810D01*
X94136242Y-116867328D01*
X94116080Y-116875233D01*
X94105622Y-116866350D01*
X94101718Y-116833627D01*
X94101199Y-116788821D01*
X94099120Y-116732263D01*
X94093785Y-116691633D01*
X94089169Y-116679530D01*
X94079760Y-116657723D01*
X94064425Y-116609104D01*
X94045715Y-116542089D01*
X94034967Y-116500669D01*
X93999016Y-116382543D01*
X93956390Y-116293716D01*
X93902508Y-116227311D01*
X93832785Y-116176454D01*
X93810967Y-116164658D01*
X93709836Y-116130562D01*
X93600708Y-116123252D01*
X93493024Y-116141138D01*
X93396224Y-116182630D01*
X93319749Y-116246138D01*
X93318533Y-116247573D01*
X93273912Y-116311334D01*
X93241664Y-116384917D01*
X93220319Y-116474666D01*
X93208408Y-116586923D01*
X93204460Y-116728031D01*
X93204444Y-116739872D01*
X93205109Y-116842664D01*
X93207750Y-116917457D01*
X93213390Y-116972474D01*
X93223050Y-117015938D01*
X93237754Y-117056072D01*
X93246093Y-117074810D01*
X93309467Y-117182077D01*
X93387453Y-117257087D01*
X93483318Y-117301995D01*
X93600327Y-117318955D01*
X93616570Y-117319217D01*
X93720742Y-117319615D01*
X93720742Y-117517833D01*
X93722324Y-117602378D01*
X93726658Y-117670236D01*
X93733126Y-117714257D01*
X93738859Y-117727247D01*
X93755330Y-117745687D01*
X93740740Y-117759293D01*
X93699966Y-117767849D01*
X93637887Y-117771133D01*
X93559379Y-117768929D01*
X93469320Y-117761016D01*
X93372589Y-117747177D01*
X93356762Y-117744388D01*
X93283146Y-117729819D01*
X93217722Y-117714709D01*
X93173649Y-117702119D01*
X93171063Y-117701170D01*
X93122882Y-117682851D01*
X93122882Y-117187809D01*
X93122295Y-117055334D01*
X93120637Y-116935399D01*
X93118061Y-116832733D01*
X93114720Y-116752062D01*
X93110766Y-116698114D01*
X93106354Y-116675616D01*
X93106299Y-116675557D01*
X93091165Y-116645345D01*
X93083653Y-116613053D01*
X93079293Y-116591603D01*
X93068395Y-116578288D01*
X93043722Y-116571167D01*
X92998039Y-116568305D01*
X92924108Y-116567762D01*
X92914537Y-116567760D01*
X92751484Y-116567760D01*
X92746196Y-116718872D01*
X92742620Y-116793282D01*
X92737335Y-116837572D01*
X92728896Y-116857853D01*
X92715858Y-116860240D01*
X92713009Y-116859279D01*
X92677221Y-116852260D01*
X92624780Y-116848688D01*
X92614125Y-116848574D01*
X92543139Y-116848574D01*
X92543453Y-116708167D01*
X92559187Y-116502802D01*
X92604681Y-116316920D01*
X92678816Y-116151881D01*
X92780473Y-116009044D01*
X92908534Y-115889767D01*
X93061880Y-115795409D01*
X93239392Y-115727330D01*
X93376520Y-115696194D01*
X93582843Y-115675028D01*
X93782683Y-115681710D01*
G37*
%TD.AperFunction*%
%TD*%
D11*
%TO.P,C2,1*%
%TO.N,+5V*%
X131370000Y-101160000D03*
%TO.P,C2,2*%
%TO.N,GND*%
X131370000Y-98660000D03*
%TD*%
%TO.P,C3,1*%
%TO.N,+5V*%
X136655000Y-87330000D03*
%TO.P,C3,2*%
%TO.N,GND*%
X136655000Y-89830000D03*
%TD*%
%TO.P,C6,1*%
%TO.N,+5V*%
X136810000Y-77090000D03*
%TO.P,C6,2*%
%TO.N,GND*%
X136810000Y-79590000D03*
%TD*%
D12*
%TO.P,U6,1,S*%
%TO.N,~{RFSH}*%
X139680000Y-82160000D03*
D13*
%TO.P,U6,2,I0a*%
%TO.N,/D4'*%
X142220000Y-82160000D03*
%TO.P,U6,3,I1a*%
%TO.N,A7*%
X144760000Y-82160000D03*
%TO.P,U6,4,Za*%
%TO.N,/A7'*%
X147300000Y-82160000D03*
%TO.P,U6,5,I0b*%
%TO.N,/D5'*%
X149840000Y-82160000D03*
%TO.P,U6,6,I1b*%
%TO.N,A8*%
X152380000Y-82160000D03*
%TO.P,U6,7,Zb*%
%TO.N,/A8'*%
X154920000Y-82160000D03*
%TO.P,U6,8,GND*%
%TO.N,GND*%
X157460000Y-82160000D03*
%TO.P,U6,9,Zc*%
%TO.N,unconnected-(U6-Zc-Pad9)*%
X157460000Y-74540000D03*
%TO.P,U6,10,I1c*%
%TO.N,unconnected-(U6-I1c-Pad10)*%
X154920000Y-74540000D03*
%TO.P,U6,11,I0c*%
%TO.N,unconnected-(U6-I0c-Pad11)*%
X152380000Y-74540000D03*
%TO.P,U6,12,Zd*%
%TO.N,unconnected-(U6-Zd-Pad12)*%
X149840000Y-74540000D03*
%TO.P,U6,13,I1d*%
%TO.N,unconnected-(U6-I1d-Pad13)*%
X147300000Y-74540000D03*
%TO.P,U6,14,I0d*%
%TO.N,unconnected-(U6-I0d-Pad14)*%
X144760000Y-74540000D03*
%TO.P,U6,15,E*%
%TO.N,GND*%
X142220000Y-74540000D03*
%TO.P,U6,16,VCC*%
%TO.N,+5V*%
X139680000Y-74540000D03*
%TD*%
D12*
%TO.P,U1,1,NC*%
%TO.N,unconnected-(U1-NC-Pad1)*%
X81890000Y-75100000D03*
D13*
%TO.P,U1,2,A12*%
%TO.N,A12*%
X81890000Y-77640000D03*
%TO.P,U1,3,A7*%
%TO.N,/A7'*%
X81890000Y-80180000D03*
%TO.P,U1,4,A6*%
%TO.N,/A6'*%
X81890000Y-82720000D03*
%TO.P,U1,5,A5*%
%TO.N,/A5'*%
X81890000Y-85260000D03*
%TO.P,U1,6,A4*%
%TO.N,/A4'*%
X81890000Y-87800000D03*
%TO.P,U1,7,A3*%
%TO.N,/A3'*%
X81890000Y-90340000D03*
%TO.P,U1,8,A2*%
%TO.N,/A2'*%
X81890000Y-92880000D03*
%TO.P,U1,9,A1*%
%TO.N,/A1'*%
X81890000Y-95420000D03*
%TO.P,U1,10,A0*%
%TO.N,/A0'*%
X81890000Y-97960000D03*
%TO.P,U1,11,D0*%
%TO.N,D0*%
X81890000Y-100500000D03*
%TO.P,U1,12,D1*%
%TO.N,D1*%
X81890000Y-103040000D03*
%TO.P,U1,13,D2*%
%TO.N,D2*%
X81890000Y-105580000D03*
%TO.P,U1,14,GND*%
%TO.N,GND*%
X81890000Y-108120000D03*
%TO.P,U1,15,D3*%
%TO.N,D3*%
X97130000Y-108120000D03*
%TO.P,U1,16,D4*%
%TO.N,D4*%
X97130000Y-105580000D03*
%TO.P,U1,17,D5*%
%TO.N,D5*%
X97130000Y-103040000D03*
%TO.P,U1,18,D6*%
%TO.N,D6*%
X97130000Y-100500000D03*
%TO.P,U1,19,D7*%
%TO.N,D7*%
X97130000Y-97960000D03*
%TO.P,U1,20,~{CE}*%
%TO.N,~{CS}*%
X97130000Y-95420000D03*
%TO.P,U1,21,A10*%
%TO.N,A10*%
X97130000Y-92880000D03*
%TO.P,U1,22,~{OE/Vpp}*%
%TO.N,~{CS}*%
X97130000Y-90340000D03*
%TO.P,U1,23,A11*%
%TO.N,A11*%
X97130000Y-87800000D03*
%TO.P,U1,24,A9*%
%TO.N,A9*%
X97130000Y-85260000D03*
%TO.P,U1,25,A8*%
%TO.N,/A8'*%
X97130000Y-82720000D03*
%TO.P,U1,26,NC*%
%TO.N,unconnected-(U1-NC-Pad26)*%
X97130000Y-80180000D03*
%TO.P,U1,27,~{WE}*%
%TO.N,+5V*%
X97130000Y-77640000D03*
%TO.P,U1,28,VCC*%
X97130000Y-75100000D03*
%TD*%
D12*
%TO.P,U3,1,B*%
%TO.N,+5V*%
X139615000Y-92380000D03*
D13*
%TO.P,U3,2,QB*%
%TO.N,Net-(U3-QB)*%
X142155000Y-92380000D03*
%TO.P,U3,3,QA*%
%TO.N,Net-(U3-QA)*%
X144695000Y-92380000D03*
%TO.P,U3,4,DOWN*%
%TO.N,+5V*%
X147235000Y-92380000D03*
%TO.P,U3,5,UP*%
%TO.N,~{HALT}*%
X149775000Y-92380000D03*
%TO.P,U3,6,QC*%
%TO.N,Net-(U3-QC)*%
X152315000Y-92380000D03*
%TO.P,U3,7,QD*%
%TO.N,unconnected-(U3-QD-Pad7)*%
X154855000Y-92380000D03*
%TO.P,U3,8,GND*%
%TO.N,GND*%
X157395000Y-92380000D03*
%TO.P,U3,9,D*%
%TO.N,+5V*%
X157395000Y-84760000D03*
%TO.P,U3,10,C*%
X154855000Y-84760000D03*
%TO.P,U3,11,~{LOAD}*%
%TO.N,~{NMI}*%
X152315000Y-84760000D03*
%TO.P,U3,12,~{CO}*%
%TO.N,unconnected-(U3-~{CO}-Pad12)*%
X149775000Y-84760000D03*
%TO.P,U3,13,~{BO}*%
%TO.N,unconnected-(U3-~{BO}-Pad13)*%
X147235000Y-84760000D03*
%TO.P,U3,14,CLR*%
%TO.N,GND*%
X144695000Y-84760000D03*
%TO.P,U3,15,A*%
%TO.N,+5V*%
X142155000Y-84760000D03*
%TO.P,U3,16,VCC*%
X139615000Y-84760000D03*
%TD*%
D11*
%TO.P,C5,1*%
%TO.N,+5V*%
X105690000Y-87500000D03*
%TO.P,C5,2*%
%TO.N,GND*%
X105690000Y-90000000D03*
%TD*%
D12*
%TO.P,U2,1,OE*%
%TO.N,GND*%
X134450000Y-103870000D03*
D13*
%TO.P,U2,2,O0*%
%TO.N,/D0'*%
X136990000Y-103870000D03*
%TO.P,U2,3,D0*%
%TO.N,D0*%
X139530000Y-103870000D03*
%TO.P,U2,4,D1*%
%TO.N,D1*%
X142070000Y-103870000D03*
%TO.P,U2,5,O1*%
%TO.N,/D1'*%
X144610000Y-103870000D03*
%TO.P,U2,6,O2*%
%TO.N,/D2'*%
X147150000Y-103870000D03*
%TO.P,U2,7,D2*%
%TO.N,D2*%
X149690000Y-103870000D03*
%TO.P,U2,8,D3*%
%TO.N,D3*%
X152230000Y-103870000D03*
%TO.P,U2,9,O3*%
%TO.N,/D3'*%
X154770000Y-103870000D03*
%TO.P,U2,10,GND*%
%TO.N,GND*%
X157310000Y-103870000D03*
%TO.P,U2,11,Cp*%
%TO.N,~{RD}*%
X157310000Y-96250000D03*
%TO.P,U2,12,O4*%
%TO.N,/D4'*%
X154770000Y-96250000D03*
%TO.P,U2,13,D4*%
%TO.N,D4*%
X152230000Y-96250000D03*
%TO.P,U2,14,D5*%
%TO.N,D5*%
X149690000Y-96250000D03*
%TO.P,U2,15,O5*%
%TO.N,/D5'*%
X147150000Y-96250000D03*
%TO.P,U2,16,O6*%
%TO.N,unconnected-(U2-O6-Pad16)*%
X144610000Y-96250000D03*
%TO.P,U2,17,D6*%
%TO.N,GND*%
X142070000Y-96250000D03*
%TO.P,U2,18,D7*%
X139530000Y-96250000D03*
%TO.P,U2,19,O7*%
%TO.N,unconnected-(U2-O7-Pad19)*%
X136990000Y-96250000D03*
%TO.P,U2,20,VCC*%
%TO.N,+5V*%
X134450000Y-96250000D03*
%TD*%
D14*
%TO.P,R2,1*%
%TO.N,~{CS}*%
X112670000Y-96815000D03*
D15*
%TO.P,R2,2*%
%TO.N,GND*%
X112670000Y-104435000D03*
%TD*%
D11*
%TO.P,C4,1*%
%TO.N,+5V*%
X105465000Y-79660000D03*
%TO.P,C4,2*%
%TO.N,GND*%
X105465000Y-77160000D03*
%TD*%
D16*
%TO.P,D6,1,K*%
%TO.N,~{CS}*%
X115620000Y-96725000D03*
D17*
%TO.P,D6,2,A*%
%TO.N,A13*%
X115620000Y-104345000D03*
%TD*%
D16*
%TO.P,D5,1,K*%
%TO.N,~{CS}*%
X119080000Y-96715000D03*
D17*
%TO.P,D5,2,A*%
%TO.N,A14*%
X119080000Y-104335000D03*
%TD*%
D16*
%TO.P,D4,1,K*%
%TO.N,~{CS}*%
X122540000Y-96725000D03*
D17*
%TO.P,D4,2,A*%
%TO.N,A15*%
X122540000Y-104345000D03*
%TD*%
D18*
%TO.P,J1,B3,D7*%
%TO.N,D7*%
X104124600Y-118590000D03*
%TO.P,J1,B4,~{RAMCS}*%
%TO.N,unconnected-(J1-~{RAMCS}-PadB4)*%
X106664600Y-118590000D03*
%TO.P,J1,B6,D0*%
%TO.N,D0*%
X111744600Y-118590000D03*
%TO.P,J1,B7,D1*%
%TO.N,D1*%
X114284600Y-118590000D03*
%TO.P,J1,B8,D2*%
%TO.N,D2*%
X116824600Y-118590000D03*
%TO.P,J1,B9,D6*%
%TO.N,D6*%
X119364600Y-118590000D03*
%TO.P,J1,B10,D5*%
%TO.N,D5*%
X121904600Y-118590000D03*
%TO.P,J1,B11,D3*%
%TO.N,D3*%
X124444600Y-118590000D03*
%TO.P,J1,B12,D4*%
%TO.N,D4*%
X126974600Y-118590000D03*
%TO.P,J1,B13,~{INT}*%
%TO.N,unconnected-(J1-~{INT}-PadB13)*%
X129524600Y-118590000D03*
%TO.P,J1,B14,~{NMI}*%
%TO.N,~{NMI}*%
X132064600Y-118590000D03*
%TO.P,J1,B15,~{HALT}*%
%TO.N,~{HALT}*%
X134604600Y-118590000D03*
%TO.P,J1,B16,~{MREQ}*%
%TO.N,~{MREQ}*%
X137144600Y-118590000D03*
%TO.P,J1,B17,~{IOREQ}*%
%TO.N,unconnected-(J1-~{IOREQ}-PadB17)*%
X139684600Y-118590000D03*
%TO.P,J1,B18,~{RD}*%
%TO.N,~{RD}*%
X142224600Y-118590000D03*
%TO.P,J1,B19,~{WR}*%
%TO.N,unconnected-(J1-~{WR}-PadB19)*%
X144764600Y-118590000D03*
%TO.P,J1,B20,~{BUSAC}*%
%TO.N,unconnected-(J1-~{BUSAC}-PadB20)*%
X147304600Y-118590000D03*
%TO.P,J1,B21,~{WAIT}*%
%TO.N,unconnected-(J1-~{WAIT}-PadB21)*%
X149844600Y-118590000D03*
%TO.P,J1,B22,~{BUSRQ}*%
%TO.N,unconnected-(J1-~{BUSRQ}-PadB22)*%
X152384600Y-118590000D03*
%TO.P,J1,B23,~{RESET}*%
%TO.N,unconnected-(J1-~{RESET}-PadB23)*%
X154924600Y-118590000D03*
%TO.P,J1,B24,~{M1}*%
%TO.N,unconnected-(J1-~{M1}-PadB24)*%
X157464600Y-118590000D03*
%TO.P,J1,B25,~{RFSH}*%
%TO.N,~{RFSH}*%
X160004600Y-118590000D03*
%TD*%
D12*
%TO.P,U4,1,S*%
%TO.N,~{RFSH}*%
X108660000Y-82330000D03*
D13*
%TO.P,U4,2,I0a*%
%TO.N,Net-(U3-QA)*%
X111200000Y-82330000D03*
%TO.P,U4,3,I1a*%
%TO.N,A0*%
X113740000Y-82330000D03*
%TO.P,U4,4,Za*%
%TO.N,/A0'*%
X116280000Y-82330000D03*
%TO.P,U4,5,I0b*%
%TO.N,Net-(U3-QB)*%
X118820000Y-82330000D03*
%TO.P,U4,6,I1b*%
%TO.N,A1*%
X121360000Y-82330000D03*
%TO.P,U4,7,Zb*%
%TO.N,/A1'*%
X123900000Y-82330000D03*
%TO.P,U4,8,GND*%
%TO.N,GND*%
X126440000Y-82330000D03*
%TO.P,U4,9,Zc*%
%TO.N,/A2'*%
X126440000Y-74710000D03*
%TO.P,U4,10,I1c*%
%TO.N,A2*%
X123900000Y-74710000D03*
%TO.P,U4,11,I0c*%
%TO.N,Net-(U3-QC)*%
X121360000Y-74710000D03*
%TO.P,U4,12,Zd*%
%TO.N,unconnected-(U4-Zd-Pad12)*%
X118820000Y-74710000D03*
%TO.P,U4,13,I1d*%
%TO.N,unconnected-(U4-I1d-Pad13)*%
X116280000Y-74710000D03*
%TO.P,U4,14,I0d*%
%TO.N,unconnected-(U4-I0d-Pad14)*%
X113740000Y-74710000D03*
%TO.P,U4,15,E*%
%TO.N,GND*%
X111200000Y-74710000D03*
%TO.P,U4,16,VCC*%
%TO.N,+5V*%
X108660000Y-74710000D03*
%TD*%
D11*
%TO.P,C1,1*%
%TO.N,+5V*%
X101550000Y-77280000D03*
%TO.P,C1,2*%
%TO.N,GND*%
X101550000Y-79780000D03*
%TD*%
D12*
%TO.P,U5,1,S*%
%TO.N,~{RFSH}*%
X108600000Y-92540000D03*
D13*
%TO.P,U5,2,I0a*%
%TO.N,/D0'*%
X111140000Y-92540000D03*
%TO.P,U5,3,I1a*%
%TO.N,A3*%
X113680000Y-92540000D03*
%TO.P,U5,4,Za*%
%TO.N,/A3'*%
X116220000Y-92540000D03*
%TO.P,U5,5,I0b*%
%TO.N,/D1'*%
X118760000Y-92540000D03*
%TO.P,U5,6,I1b*%
%TO.N,A4*%
X121300000Y-92540000D03*
%TO.P,U5,7,Zb*%
%TO.N,/A4'*%
X123840000Y-92540000D03*
%TO.P,U5,8,GND*%
%TO.N,GND*%
X126380000Y-92540000D03*
%TO.P,U5,9,Zc*%
%TO.N,/A5'*%
X126380000Y-84920000D03*
%TO.P,U5,10,I1c*%
%TO.N,A5*%
X123840000Y-84920000D03*
%TO.P,U5,11,I0c*%
%TO.N,/D2'*%
X121300000Y-84920000D03*
%TO.P,U5,12,Zd*%
%TO.N,/A6'*%
X118760000Y-84920000D03*
%TO.P,U5,13,I1d*%
%TO.N,A6*%
X116220000Y-84920000D03*
%TO.P,U5,14,I0d*%
%TO.N,/D3'*%
X113680000Y-84920000D03*
%TO.P,U5,15,E*%
%TO.N,GND*%
X111140000Y-84920000D03*
%TO.P,U5,16,VCC*%
%TO.N,+5V*%
X108600000Y-84920000D03*
%TD*%
D19*
%TO.N,A10*%
X126116400Y-98411500D03*
%TO.N,A4*%
X154798400Y-101260000D03*
%TO.N,A3*%
X120777500Y-104526200D03*
X116100300Y-100056800D03*
%TO.N,D7*%
X103673300Y-113053700D03*
%TO.N,D5*%
X146661800Y-101894500D03*
X101782800Y-109283300D03*
%TO.N,A12*%
X123823100Y-98228900D03*
%TO.N,~{HALT}*%
X141509100Y-109689500D03*
%TO.N,A11*%
X124569700Y-91144700D03*
%TO.N,D6*%
X102489400Y-109974800D03*
%TO.N,~{RFSH}*%
X160070700Y-112583800D03*
%TO.N,A6*%
X149354000Y-100234200D03*
X119724900Y-88147400D03*
%TO.N,A9*%
X132875100Y-104384800D03*
X104307900Y-98830600D03*
%TO.N,A7*%
X141295600Y-110945400D03*
X147018600Y-110945400D03*
X144973900Y-86660000D03*
%TO.N,D4*%
X149468400Y-106798400D03*
X148257400Y-105282400D03*
%TO.N,A5*%
X151423300Y-99601000D03*
%TO.N,/D3'*%
X142471000Y-98847000D03*
X129410600Y-87238400D03*
X117165600Y-87238400D03*
%TO.N,/D2'*%
X124793700Y-89552600D03*
%TO.N,~{NMI}*%
X146736300Y-91053500D03*
X140707300Y-109577400D03*
%TD*%
D20*
%TO.N,GND*%
X143171700Y-96108500D02*
X144436200Y-94844000D01*
X124356400Y-83431700D02*
X125338200Y-82449900D01*
X144436200Y-94844000D02*
X153967000Y-94844000D01*
X125338200Y-82330000D02*
X125338300Y-82330000D01*
X153967000Y-94844000D02*
X156293300Y-92517700D01*
X142070000Y-96250000D02*
X143171700Y-96250000D01*
X157395000Y-92380000D02*
X156293300Y-92380000D01*
X112241700Y-84920000D02*
X112241700Y-84691700D01*
X126440000Y-82330000D02*
X125338300Y-82330000D01*
X112241700Y-84691700D02*
X113501700Y-83431700D01*
X139530000Y-96250000D02*
X142070000Y-96250000D01*
X125338200Y-82449900D02*
X125338200Y-82330000D01*
X111140000Y-84920000D02*
X112241700Y-84920000D01*
X156293300Y-92517700D02*
X156293300Y-92380000D01*
X143171700Y-96250000D02*
X143171700Y-96108500D01*
X113501700Y-83431700D02*
X124356400Y-83431700D01*
%TO.N,A10*%
X97130000Y-92880000D02*
X98231700Y-92880000D01*
X126116400Y-98324200D02*
X126116400Y-98411500D01*
X100823100Y-95471400D02*
X123263600Y-95471400D01*
X123263600Y-95471400D02*
X126116400Y-98324200D01*
X98231700Y-92880000D02*
X100823100Y-95471400D01*
%TO.N,A4*%
X129670500Y-93576700D02*
X125044600Y-88950800D01*
X123385000Y-93644900D02*
X122401700Y-92661600D01*
X125178700Y-90832300D02*
X125178700Y-92801100D01*
X129670500Y-94196000D02*
X129670500Y-93576700D01*
X124536200Y-88950800D02*
X124179300Y-89307700D01*
X122401700Y-92661600D02*
X122401700Y-92540000D01*
X146514000Y-98245300D02*
X133719800Y-98245300D01*
X125178700Y-92801100D02*
X124334900Y-93644900D01*
X124334900Y-93644900D02*
X123385000Y-93644900D01*
X149528700Y-101260000D02*
X146514000Y-98245300D01*
X125044600Y-88950800D02*
X124536200Y-88950800D01*
X124179300Y-89307700D02*
X124179300Y-89832900D01*
X154798400Y-101260000D02*
X149528700Y-101260000D01*
X124179300Y-89832900D02*
X125178700Y-90832300D01*
X133719800Y-98245300D02*
X129670500Y-94196000D01*
X121300000Y-92540000D02*
X122401700Y-92540000D01*
%TO.N,A3*%
X116308100Y-100056800D02*
X120777500Y-104526200D01*
X116100300Y-100056800D02*
X116308100Y-100056800D01*
%TO.N,D7*%
X104124600Y-118590000D02*
X104124600Y-113478300D01*
X104124600Y-113478300D02*
X104097900Y-113478300D01*
X104097900Y-113478300D02*
X103673300Y-113053700D01*
%TO.N,D0*%
X110627200Y-112360900D02*
X84567300Y-112360900D01*
X80375300Y-108168900D02*
X80375300Y-102888100D01*
X111744600Y-113478300D02*
X110627200Y-112360900D01*
X80375300Y-102888100D02*
X81661700Y-101601700D01*
X81890000Y-100500000D02*
X81890000Y-101601700D01*
X84103000Y-99388700D02*
X104015200Y-99388700D01*
X104058800Y-99432300D02*
X119114700Y-99432300D01*
X81661700Y-101601700D02*
X81890000Y-101601700D01*
X124668900Y-104986500D02*
X137449600Y-104986500D01*
X119114700Y-99432300D02*
X124668900Y-104986500D01*
X138428300Y-104007800D02*
X138428300Y-103870000D01*
X84567300Y-112360900D02*
X80375300Y-108168900D01*
X104015200Y-99388700D02*
X104058800Y-99432300D01*
X137449600Y-104986500D02*
X138428300Y-104007800D01*
X139530000Y-103870000D02*
X138428300Y-103870000D01*
X81890000Y-100500000D02*
X82991700Y-100500000D01*
X111744600Y-118590000D02*
X111744600Y-113478300D01*
X82991700Y-100500000D02*
X84103000Y-99388700D01*
%TO.N,D2*%
X84261900Y-106850200D02*
X82991700Y-105580000D01*
X147811500Y-106850200D02*
X96025300Y-106850200D01*
X116824600Y-118590000D02*
X116824600Y-113478300D01*
X149690000Y-104971700D02*
X147811500Y-106850200D01*
X96025300Y-108623600D02*
X98617000Y-111215300D01*
X149690000Y-103870000D02*
X149690000Y-104971700D01*
X98617000Y-111215300D02*
X114561600Y-111215300D01*
X96025300Y-106850200D02*
X84261900Y-106850200D01*
X96025300Y-106850200D02*
X96025300Y-108623600D01*
X81890000Y-105580000D02*
X82991700Y-105580000D01*
X114561600Y-111215300D02*
X116824600Y-113478300D01*
%TO.N,D5*%
X117709600Y-109283300D02*
X101782800Y-109283300D01*
X121904600Y-113478300D02*
X117709600Y-109283300D01*
X148288100Y-103401100D02*
X148288100Y-104305800D01*
X97130000Y-103040000D02*
X98231700Y-103040000D01*
X121904600Y-118590000D02*
X121904600Y-113478300D01*
X146781500Y-101894500D02*
X148288100Y-103401100D01*
X101065600Y-105873900D02*
X98231700Y-103040000D01*
X146661800Y-101894500D02*
X146781500Y-101894500D01*
X148288100Y-104305800D02*
X146720000Y-105873900D01*
X146720000Y-105873900D02*
X101065600Y-105873900D01*
%TO.N,~{CS}*%
X98990200Y-96178500D02*
X98231700Y-95420000D01*
X112670000Y-96770000D02*
X112670000Y-96815000D01*
X112715000Y-96725000D02*
X112670000Y-96770000D01*
X97130000Y-95420000D02*
X98231700Y-95420000D01*
X122540000Y-96725000D02*
X120141700Y-96725000D01*
X119080000Y-96715000D02*
X116681700Y-96715000D01*
X115620000Y-96725000D02*
X116671700Y-96725000D01*
X112078500Y-96178500D02*
X98990200Y-96178500D01*
X119080000Y-96715000D02*
X120131700Y-96715000D01*
X112670000Y-96770000D02*
X112078500Y-96178500D01*
X120141700Y-96725000D02*
X120131700Y-96715000D01*
X116681700Y-96715000D02*
X116671700Y-96725000D01*
X115620000Y-96725000D02*
X112715000Y-96725000D01*
%TO.N,A12*%
X81890000Y-77640000D02*
X81890000Y-78741700D01*
X87355100Y-96787000D02*
X82346400Y-91778300D01*
X80788300Y-79615100D02*
X81661700Y-78741700D01*
X80788300Y-90804600D02*
X80788300Y-79615100D01*
X104336800Y-98228900D02*
X102894900Y-96787000D01*
X102894900Y-96787000D02*
X87355100Y-96787000D01*
X81661700Y-78741700D02*
X81890000Y-78741700D01*
X82346400Y-91778300D02*
X81762000Y-91778300D01*
X81762000Y-91778300D02*
X80788300Y-90804600D01*
X123823100Y-98228900D02*
X104336800Y-98228900D01*
%TO.N,~{HALT}*%
X134604600Y-113478300D02*
X137720300Y-113478300D01*
X134604600Y-118590000D02*
X134604600Y-113478300D01*
X137720300Y-113478300D02*
X141509100Y-109689500D01*
%TO.N,A11*%
X97130000Y-87800000D02*
X98231700Y-87800000D01*
X122175000Y-88750000D02*
X124569700Y-91144700D01*
X99181700Y-88750000D02*
X122175000Y-88750000D01*
X98231700Y-87800000D02*
X99181700Y-88750000D01*
%TO.N,D3*%
X119086300Y-108120000D02*
X124444600Y-113478300D01*
X97130000Y-108120000D02*
X98231700Y-108120000D01*
X151128300Y-104159900D02*
X147432700Y-107855500D01*
X124444600Y-118590000D02*
X124444600Y-113478300D01*
X152230000Y-103870000D02*
X151128300Y-103870000D01*
X151128300Y-103870000D02*
X151128300Y-104159900D01*
X147432700Y-107855500D02*
X130067400Y-107855500D01*
X98231700Y-108120000D02*
X119086300Y-108120000D01*
X130067400Y-107855500D02*
X124444600Y-113478300D01*
%TO.N,D6*%
X115861100Y-109974800D02*
X119364600Y-113478300D01*
X102489400Y-109974800D02*
X115861100Y-109974800D01*
X119364600Y-118590000D02*
X119364600Y-113478300D01*
%TO.N,~{RFSH}*%
X160070700Y-112583800D02*
X160004600Y-112649900D01*
X134523500Y-82160000D02*
X132780200Y-80416700D01*
X111537200Y-80416700D02*
X109761700Y-82192200D01*
X109761700Y-82192200D02*
X109761700Y-82330000D01*
X138578300Y-82160000D02*
X134523500Y-82160000D01*
X132780200Y-80416700D02*
X111537200Y-80416700D01*
X108660000Y-82330000D02*
X109761700Y-82330000D01*
X139680000Y-82160000D02*
X138578300Y-82160000D01*
X160004600Y-112649900D02*
X160004600Y-118590000D01*
%TO.N,A6*%
X130072200Y-94016700D02*
X130072200Y-93407800D01*
X133899100Y-97843600D02*
X130072200Y-94016700D01*
X149354000Y-100234200D02*
X146963400Y-97843600D01*
X146963400Y-97843600D02*
X133899100Y-97843600D01*
X124811800Y-88147400D02*
X119724900Y-88147400D01*
X130072200Y-93407800D02*
X124811800Y-88147400D01*
%TO.N,A9*%
X132875100Y-104384800D02*
X129130300Y-104384800D01*
X129130300Y-104384800D02*
X123576100Y-98830600D01*
X123576100Y-98830600D02*
X104307900Y-98830600D01*
%TO.N,D1*%
X139537300Y-105443800D02*
X110750000Y-105443800D01*
X140968300Y-103870000D02*
X140968300Y-104012800D01*
X84145800Y-101885900D02*
X82991700Y-103040000D01*
X81890000Y-103040000D02*
X82991700Y-103040000D01*
X140968300Y-104012800D02*
X139537300Y-105443800D01*
X81890000Y-103040000D02*
X81890000Y-104141700D01*
X80781900Y-105021500D02*
X81661700Y-104141700D01*
X114284600Y-113478300D02*
X112763900Y-111957600D01*
X82489200Y-106850000D02*
X81592400Y-106850000D01*
X142070000Y-103870000D02*
X140968300Y-103870000D01*
X112763900Y-111957600D02*
X87596800Y-111957600D01*
X81661700Y-104141700D02*
X81890000Y-104141700D01*
X107192100Y-101885900D02*
X84145800Y-101885900D01*
X110750000Y-105443800D02*
X107192100Y-101885900D01*
X80781900Y-106039500D02*
X80781900Y-105021500D01*
X81592400Y-106850000D02*
X80781900Y-106039500D01*
X114284600Y-118590000D02*
X114284600Y-113478300D01*
X87596800Y-111957600D02*
X82489200Y-106850000D01*
%TO.N,A7*%
X145796700Y-84298400D02*
X144760000Y-83261700D01*
X144760000Y-82160000D02*
X144760000Y-83261700D01*
X145796700Y-85837200D02*
X145796700Y-84298400D01*
X147018600Y-110945400D02*
X141295600Y-110945400D01*
X144973900Y-86660000D02*
X145796700Y-85837200D01*
%TO.N,D4*%
X147291100Y-108975700D02*
X131477900Y-108975700D01*
X148257400Y-105282400D02*
X147233200Y-106306600D01*
X126974600Y-113479800D02*
X126974600Y-113479000D01*
X149468400Y-106798400D02*
X147291100Y-108975700D01*
X98958300Y-106306600D02*
X98231700Y-105580000D01*
X126974600Y-118590000D02*
X126974600Y-113579100D01*
X147233200Y-106306600D02*
X98958300Y-106306600D01*
X97130000Y-105580000D02*
X98231700Y-105580000D01*
X131477900Y-108975700D02*
X126974600Y-113479000D01*
X126974600Y-113579100D02*
X126974600Y-113479800D01*
%TO.N,A5*%
X124941700Y-84782300D02*
X124941700Y-84920000D01*
X151423300Y-99601000D02*
X149264200Y-97441900D01*
X123840000Y-84920000D02*
X124941700Y-84920000D01*
X133347100Y-96705200D02*
X133347100Y-90309500D01*
X149264200Y-97441900D02*
X134083800Y-97441900D01*
X125965500Y-83758500D02*
X124941700Y-84782300D01*
X126796100Y-83758500D02*
X125965500Y-83758500D01*
X133347100Y-90309500D02*
X126796100Y-83758500D01*
X134083800Y-97441900D02*
X133347100Y-96705200D01*
%TO.N,/A5'*%
X81890000Y-85260000D02*
X82991700Y-85260000D01*
X84100400Y-86368700D02*
X82991700Y-85260000D01*
X107588600Y-86368700D02*
X84100400Y-86368700D01*
X124870700Y-86429300D02*
X107649200Y-86429300D01*
X107649200Y-86429300D02*
X107588600Y-86368700D01*
X126380000Y-84920000D02*
X124870700Y-86429300D01*
%TO.N,/A7'*%
X81890000Y-80180000D02*
X82991700Y-80180000D01*
X155429100Y-83272000D02*
X156097600Y-82603500D01*
X108249600Y-78433500D02*
X105391900Y-81291200D01*
X148401700Y-82160000D02*
X148401700Y-82297700D01*
X148401700Y-82297700D02*
X149376000Y-83272000D01*
X152836600Y-78433500D02*
X108249600Y-78433500D01*
X156097600Y-81694500D02*
X152836600Y-78433500D01*
X147300000Y-82160000D02*
X148401700Y-82160000D01*
X149376000Y-83272000D02*
X155429100Y-83272000D01*
X105391900Y-81291200D02*
X84102900Y-81291200D01*
X84102900Y-81291200D02*
X82991700Y-80180000D01*
X156097600Y-82603500D02*
X156097600Y-81694500D01*
%TO.N,/A8'*%
X153818300Y-82022200D02*
X153818300Y-82160000D01*
X152854400Y-81058300D02*
X153818300Y-82022200D01*
X135180700Y-79964100D02*
X136274900Y-81058300D01*
X154920000Y-82160000D02*
X153818300Y-82160000D01*
X108151100Y-79964100D02*
X135180700Y-79964100D01*
X97130000Y-82720000D02*
X98231700Y-82720000D01*
X98231700Y-82720000D02*
X105395200Y-82720000D01*
X105395200Y-82720000D02*
X108151100Y-79964100D01*
X136274900Y-81058300D02*
X152854400Y-81058300D01*
%TO.N,/A4'*%
X123840000Y-92540000D02*
X122273700Y-90973700D01*
X106146400Y-91101700D02*
X100967500Y-91101700D01*
X106274400Y-90973700D02*
X106146400Y-91101700D01*
X81890000Y-87800000D02*
X82991700Y-87800000D01*
X84346700Y-89155000D02*
X82991700Y-87800000D01*
X100967500Y-91101700D02*
X99020800Y-89155000D01*
X122273700Y-90973700D02*
X106274400Y-90973700D01*
X99020800Y-89155000D02*
X84346700Y-89155000D01*
%TO.N,/A6'*%
X116692100Y-86023900D02*
X107811900Y-86023900D01*
X105863000Y-84075000D02*
X84346700Y-84075000D01*
X118760000Y-84920000D02*
X117658300Y-84920000D01*
X84346700Y-84075000D02*
X82991700Y-82720000D01*
X117658300Y-84920000D02*
X117658300Y-85057700D01*
X117658300Y-85057700D02*
X116692100Y-86023900D01*
X107811900Y-86023900D02*
X105863000Y-84075000D01*
X81890000Y-82720000D02*
X82991700Y-82720000D01*
%TO.N,/A3'*%
X116220000Y-92540000D02*
X115118300Y-92540000D01*
X81890000Y-90340000D02*
X82991700Y-90340000D01*
X106497100Y-91391500D02*
X114107500Y-91391500D01*
X82991700Y-90340000D02*
X84156600Y-91504900D01*
X106383700Y-91504900D02*
X106497100Y-91391500D01*
X114107500Y-91391500D02*
X115118300Y-92402300D01*
X115118300Y-92402300D02*
X115118300Y-92540000D01*
X84156600Y-91504900D02*
X106383700Y-91504900D01*
%TO.N,/D3'*%
X117165600Y-87238400D02*
X129410600Y-87238400D01*
X142471000Y-98847000D02*
X145407000Y-98847000D01*
X152100000Y-102073400D02*
X153668300Y-103641700D01*
X148633400Y-102073400D02*
X152100000Y-102073400D01*
X154770000Y-103870000D02*
X153668300Y-103870000D01*
X145407000Y-98847000D02*
X148633400Y-102073400D01*
X153668300Y-103641700D02*
X153668300Y-103870000D01*
%TO.N,/D1'*%
X136608200Y-102340100D02*
X142206700Y-102340100D01*
X118760000Y-92540000D02*
X119861700Y-92540000D01*
X143508300Y-103641700D02*
X143508300Y-103870000D01*
X144610000Y-103870000D02*
X143508300Y-103870000D01*
X119861700Y-92540000D02*
X119861700Y-92677700D01*
X121234700Y-94050700D02*
X128318800Y-94050700D01*
X128318800Y-94050700D02*
X136608200Y-102340100D01*
X142206700Y-102340100D02*
X143508300Y-103641700D01*
X119861700Y-92677700D02*
X121234700Y-94050700D01*
%TO.N,/D0'*%
X135888300Y-103870000D02*
X135888300Y-103252100D01*
X114351100Y-94787100D02*
X112241700Y-92677700D01*
X136990000Y-103870000D02*
X135888300Y-103870000D01*
X132546200Y-99910000D02*
X128512200Y-99910000D01*
X123389300Y-94787100D02*
X114351100Y-94787100D01*
X135888300Y-103252100D02*
X132546200Y-99910000D01*
X112241700Y-92677700D02*
X112241700Y-92540000D01*
X111140000Y-92540000D02*
X112241700Y-92540000D01*
X128512200Y-99910000D02*
X123389300Y-94787100D01*
%TO.N,/D2'*%
X146048300Y-103870000D02*
X146048300Y-103641700D01*
X147150000Y-103870000D02*
X146048300Y-103870000D01*
X134718200Y-99848000D02*
X129268800Y-94398600D01*
X129268800Y-93804500D02*
X125016900Y-89552600D01*
X129268800Y-94398600D02*
X129268800Y-93804500D01*
X146048300Y-103641700D02*
X142254600Y-99848000D01*
X125016900Y-89552600D02*
X124793700Y-89552600D01*
X142254600Y-99848000D02*
X134718200Y-99848000D01*
%TO.N,Net-(U3-QA)*%
X113671700Y-80822300D02*
X132263900Y-80822300D01*
X112301700Y-82192300D02*
X113671700Y-80822300D01*
X144695000Y-92380000D02*
X143593300Y-92380000D01*
X143593300Y-92151700D02*
X143593300Y-92380000D01*
X111200000Y-82330000D02*
X112301700Y-82330000D01*
X112301700Y-82330000D02*
X112301700Y-82192300D01*
X132263900Y-80822300D02*
X143593300Y-92151700D01*
%TO.N,Net-(U3-QB)*%
X118820000Y-82330000D02*
X119921700Y-82330000D01*
X119921700Y-82192300D02*
X120886000Y-81228000D01*
X119921700Y-82330000D02*
X119921700Y-82192300D01*
X134788100Y-88580000D02*
X138355000Y-88580000D01*
X138355000Y-88580000D02*
X142155000Y-92380000D01*
X127436100Y-81228000D02*
X134788100Y-88580000D01*
X120886000Y-81228000D02*
X127436100Y-81228000D01*
%TO.N,Net-(U3-QC)*%
X121360000Y-74710000D02*
X122461700Y-74710000D01*
X152315000Y-91278300D02*
X152452700Y-91278300D01*
X152784900Y-75855600D02*
X123379000Y-75855600D01*
X152452700Y-91278300D02*
X158569200Y-85161800D01*
X158569200Y-81639900D02*
X152784900Y-75855600D01*
X158569200Y-85161800D02*
X158569200Y-81639900D01*
X152315000Y-92380000D02*
X152315000Y-91278300D01*
X122461700Y-74938300D02*
X122461700Y-74710000D01*
X123379000Y-75855600D02*
X122461700Y-74938300D01*
%TO.N,~{RD}*%
X156040000Y-98621700D02*
X157310000Y-97351700D01*
X157310000Y-96250000D02*
X157310000Y-97351700D01*
X142224600Y-118590000D02*
X142224600Y-113478300D01*
X142224600Y-113478300D02*
X146761800Y-113478300D01*
X146761800Y-113478300D02*
X156040000Y-104200100D01*
X156040000Y-104200100D02*
X156040000Y-98621700D01*
%TO.N,+5V*%
X146684200Y-92380000D02*
X153753300Y-85310900D01*
X153753300Y-85310900D02*
X153753300Y-84760000D01*
X112004000Y-77090000D02*
X136810000Y-77090000D01*
X139615000Y-84760000D02*
X142155000Y-84760000D01*
X109761700Y-74847700D02*
X112004000Y-77090000D01*
X106937700Y-75330600D02*
X106312900Y-75330600D01*
X140716700Y-92517700D02*
X141681900Y-93482900D01*
X141681900Y-93482900D02*
X145258700Y-93482900D01*
X139615000Y-92380000D02*
X140716700Y-92380000D01*
X103297100Y-77612100D02*
X102965000Y-77280000D01*
X105465000Y-79660000D02*
X103417100Y-77612000D01*
X135551700Y-95341600D02*
X138513300Y-92380000D01*
X108660000Y-74710000D02*
X109761700Y-74710000D01*
X102965000Y-77280000D02*
X101550000Y-77280000D01*
X147235000Y-92380000D02*
X146684200Y-92380000D01*
X140716700Y-92380000D02*
X140716700Y-92517700D01*
X154855000Y-84760000D02*
X153753300Y-84760000D01*
X103417100Y-77612000D02*
X103417000Y-77612100D01*
X106312900Y-75330600D02*
X105975700Y-75667800D01*
X105975700Y-75667800D02*
X105361300Y-75667800D01*
X108660000Y-74710000D02*
X107558300Y-74710000D01*
X135551700Y-96250000D02*
X135551700Y-95341600D01*
X97130000Y-77640000D02*
X98231700Y-77640000D01*
X103417000Y-77612100D02*
X103297100Y-77612100D01*
X146684200Y-92380000D02*
X146133300Y-92380000D01*
X134450000Y-96250000D02*
X135551700Y-96250000D01*
X107558300Y-74710000D02*
X106937700Y-75330600D01*
X98591700Y-77280000D02*
X98231700Y-77640000D01*
X157395000Y-84760000D02*
X154855000Y-84760000D01*
X145258700Y-93482900D02*
X146133300Y-92608300D01*
X146133300Y-92608300D02*
X146133300Y-92380000D01*
X105361300Y-75667800D02*
X103417100Y-77612000D01*
X109761700Y-74710000D02*
X109761700Y-74847700D01*
X101550000Y-77280000D02*
X98591700Y-77280000D01*
X139615000Y-92380000D02*
X138513300Y-92380000D01*
%TO.N,~{NMI}*%
X132064600Y-118590000D02*
X132064600Y-113478300D01*
X152315000Y-85861700D02*
X151928100Y-85861700D01*
X135965500Y-109577400D02*
X140707300Y-109577400D01*
X152315000Y-84760000D02*
X152315000Y-85861700D01*
X132064600Y-113478300D02*
X135965500Y-109577400D01*
X151928100Y-85861700D02*
X146736300Y-91053500D01*
%TD*%
M02*
