%TF.GenerationSoftware,KiCad,Pcbnew,8.0.2*%
%TF.CreationDate,2024-05-20T10:37:38+02:00*%
%TF.ProjectId,zx81-external-rom-with-display,7a783831-2d65-4787-9465-726e616c2d72,rev?*%
%TF.SameCoordinates,Original*%
%TF.FileFunction,Copper,L2,Bot*%
%TF.FilePolarity,Positive*%
%FSLAX46Y46*%
G04 Gerber Fmt 4.6, Leading zero omitted, Abs format (unit mm)*
G04 Created by KiCad (PCBNEW 8.0.2) date 2024-05-20 10:37:38*
%MOMM*%
%LPD*%
G01*
G04 APERTURE LIST*
%TA.AperFunction,ComponentPad*%
%ADD10C,1.600000*%
%TD*%
%TA.AperFunction,ComponentPad*%
%ADD11R,1.600000X1.600000*%
%TD*%
%TA.AperFunction,ComponentPad*%
%ADD12O,1.600000X1.600000*%
%TD*%
%TA.AperFunction,ComponentPad*%
%ADD13C,1.400000*%
%TD*%
%TA.AperFunction,ComponentPad*%
%ADD14O,1.400000X1.400000*%
%TD*%
%TA.AperFunction,ComponentPad*%
%ADD15R,1.500000X1.500000*%
%TD*%
%TA.AperFunction,ComponentPad*%
%ADD16O,1.500000X1.500000*%
%TD*%
%TA.AperFunction,ConnectorPad*%
%ADD17R,1.778000X9.620000*%
%TD*%
%TA.AperFunction,ViaPad*%
%ADD18C,0.600000*%
%TD*%
%TA.AperFunction,Conductor*%
%ADD19C,0.200000*%
%TD*%
G04 APERTURE END LIST*
D10*
%TO.P,C2,1*%
%TO.N,+5V*%
X131370000Y-101160000D03*
%TO.P,C2,2*%
%TO.N,GND*%
X131370000Y-98660000D03*
%TD*%
%TO.P,C3,1*%
%TO.N,+5V*%
X136655000Y-87330000D03*
%TO.P,C3,2*%
%TO.N,GND*%
X136655000Y-89830000D03*
%TD*%
%TO.P,C6,1*%
%TO.N,+5V*%
X136810000Y-77090000D03*
%TO.P,C6,2*%
%TO.N,GND*%
X136810000Y-79590000D03*
%TD*%
D11*
%TO.P,U6,1,S*%
%TO.N,~{RFSH}*%
X139680000Y-82160000D03*
D12*
%TO.P,U6,2,I0a*%
%TO.N,/D4'*%
X142220000Y-82160000D03*
%TO.P,U6,3,I1a*%
%TO.N,A7*%
X144760000Y-82160000D03*
%TO.P,U6,4,Za*%
%TO.N,/A7'*%
X147300000Y-82160000D03*
%TO.P,U6,5,I0b*%
%TO.N,/D5'*%
X149840000Y-82160000D03*
%TO.P,U6,6,I1b*%
%TO.N,A8*%
X152380000Y-82160000D03*
%TO.P,U6,7,Zb*%
%TO.N,/A8'*%
X154920000Y-82160000D03*
%TO.P,U6,8,GND*%
%TO.N,GND*%
X157460000Y-82160000D03*
%TO.P,U6,9,Zc*%
%TO.N,unconnected-(U6-Zc-Pad9)*%
X157460000Y-74540000D03*
%TO.P,U6,10,I1c*%
%TO.N,unconnected-(U6-I1c-Pad10)*%
X154920000Y-74540000D03*
%TO.P,U6,11,I0c*%
%TO.N,unconnected-(U6-I0c-Pad11)*%
X152380000Y-74540000D03*
%TO.P,U6,12,Zd*%
%TO.N,unconnected-(U6-Zd-Pad12)*%
X149840000Y-74540000D03*
%TO.P,U6,13,I1d*%
%TO.N,unconnected-(U6-I1d-Pad13)*%
X147300000Y-74540000D03*
%TO.P,U6,14,I0d*%
%TO.N,unconnected-(U6-I0d-Pad14)*%
X144760000Y-74540000D03*
%TO.P,U6,15,E*%
%TO.N,GND*%
X142220000Y-74540000D03*
%TO.P,U6,16,VCC*%
%TO.N,+5V*%
X139680000Y-74540000D03*
%TD*%
D11*
%TO.P,U1,1,NC*%
%TO.N,unconnected-(U1-NC-Pad1)*%
X81890000Y-75100000D03*
D12*
%TO.P,U1,2,A12*%
%TO.N,A12*%
X81890000Y-77640000D03*
%TO.P,U1,3,A7*%
%TO.N,/A7'*%
X81890000Y-80180000D03*
%TO.P,U1,4,A6*%
%TO.N,/A6'*%
X81890000Y-82720000D03*
%TO.P,U1,5,A5*%
%TO.N,/A5'*%
X81890000Y-85260000D03*
%TO.P,U1,6,A4*%
%TO.N,/A4'*%
X81890000Y-87800000D03*
%TO.P,U1,7,A3*%
%TO.N,/A3'*%
X81890000Y-90340000D03*
%TO.P,U1,8,A2*%
%TO.N,/A2'*%
X81890000Y-92880000D03*
%TO.P,U1,9,A1*%
%TO.N,/A1'*%
X81890000Y-95420000D03*
%TO.P,U1,10,A0*%
%TO.N,/A0'*%
X81890000Y-97960000D03*
%TO.P,U1,11,D0*%
%TO.N,D0*%
X81890000Y-100500000D03*
%TO.P,U1,12,D1*%
%TO.N,D1*%
X81890000Y-103040000D03*
%TO.P,U1,13,D2*%
%TO.N,D2*%
X81890000Y-105580000D03*
%TO.P,U1,14,GND*%
%TO.N,GND*%
X81890000Y-108120000D03*
%TO.P,U1,15,D3*%
%TO.N,D3*%
X97130000Y-108120000D03*
%TO.P,U1,16,D4*%
%TO.N,D4*%
X97130000Y-105580000D03*
%TO.P,U1,17,D5*%
%TO.N,D5*%
X97130000Y-103040000D03*
%TO.P,U1,18,D6*%
%TO.N,D6*%
X97130000Y-100500000D03*
%TO.P,U1,19,D7*%
%TO.N,D7*%
X97130000Y-97960000D03*
%TO.P,U1,20,~{CE}*%
%TO.N,~{CS}*%
X97130000Y-95420000D03*
%TO.P,U1,21,A10*%
%TO.N,A10*%
X97130000Y-92880000D03*
%TO.P,U1,22,~{OE/Vpp}*%
%TO.N,~{CS}*%
X97130000Y-90340000D03*
%TO.P,U1,23,A11*%
%TO.N,A11*%
X97130000Y-87800000D03*
%TO.P,U1,24,A9*%
%TO.N,A9*%
X97130000Y-85260000D03*
%TO.P,U1,25,A8*%
%TO.N,/A8'*%
X97130000Y-82720000D03*
%TO.P,U1,26,NC*%
%TO.N,unconnected-(U1-NC-Pad26)*%
X97130000Y-80180000D03*
%TO.P,U1,27,~{WE}*%
%TO.N,+5V*%
X97130000Y-77640000D03*
%TO.P,U1,28,VCC*%
X97130000Y-75100000D03*
%TD*%
D11*
%TO.P,U3,1,B*%
%TO.N,+5V*%
X139615000Y-92380000D03*
D12*
%TO.P,U3,2,QB*%
%TO.N,Net-(U3-QB)*%
X142155000Y-92380000D03*
%TO.P,U3,3,QA*%
%TO.N,Net-(U3-QA)*%
X144695000Y-92380000D03*
%TO.P,U3,4,DOWN*%
%TO.N,+5V*%
X147235000Y-92380000D03*
%TO.P,U3,5,UP*%
%TO.N,~{HALT}*%
X149775000Y-92380000D03*
%TO.P,U3,6,QC*%
%TO.N,Net-(U3-QC)*%
X152315000Y-92380000D03*
%TO.P,U3,7,QD*%
%TO.N,unconnected-(U3-QD-Pad7)*%
X154855000Y-92380000D03*
%TO.P,U3,8,GND*%
%TO.N,GND*%
X157395000Y-92380000D03*
%TO.P,U3,9,D*%
%TO.N,+5V*%
X157395000Y-84760000D03*
%TO.P,U3,10,C*%
X154855000Y-84760000D03*
%TO.P,U3,11,~{LOAD}*%
%TO.N,~{NMI}*%
X152315000Y-84760000D03*
%TO.P,U3,12,~{CO}*%
%TO.N,unconnected-(U3-~{CO}-Pad12)*%
X149775000Y-84760000D03*
%TO.P,U3,13,~{BO}*%
%TO.N,unconnected-(U3-~{BO}-Pad13)*%
X147235000Y-84760000D03*
%TO.P,U3,14,CLR*%
%TO.N,GND*%
X144695000Y-84760000D03*
%TO.P,U3,15,A*%
%TO.N,+5V*%
X142155000Y-84760000D03*
%TO.P,U3,16,VCC*%
X139615000Y-84760000D03*
%TD*%
D10*
%TO.P,C5,1*%
%TO.N,+5V*%
X105690000Y-87500000D03*
%TO.P,C5,2*%
%TO.N,GND*%
X105690000Y-90000000D03*
%TD*%
D11*
%TO.P,U2,1,OE*%
%TO.N,GND*%
X134450000Y-103870000D03*
D12*
%TO.P,U2,2,O0*%
%TO.N,/D0'*%
X136990000Y-103870000D03*
%TO.P,U2,3,D0*%
%TO.N,D0*%
X139530000Y-103870000D03*
%TO.P,U2,4,D1*%
%TO.N,D1*%
X142070000Y-103870000D03*
%TO.P,U2,5,O1*%
%TO.N,/D1'*%
X144610000Y-103870000D03*
%TO.P,U2,6,O2*%
%TO.N,/D2'*%
X147150000Y-103870000D03*
%TO.P,U2,7,D2*%
%TO.N,D2*%
X149690000Y-103870000D03*
%TO.P,U2,8,D3*%
%TO.N,D3*%
X152230000Y-103870000D03*
%TO.P,U2,9,O3*%
%TO.N,/D3'*%
X154770000Y-103870000D03*
%TO.P,U2,10,GND*%
%TO.N,GND*%
X157310000Y-103870000D03*
%TO.P,U2,11,Cp*%
%TO.N,~{RD}*%
X157310000Y-96250000D03*
%TO.P,U2,12,O4*%
%TO.N,/D4'*%
X154770000Y-96250000D03*
%TO.P,U2,13,D4*%
%TO.N,D4*%
X152230000Y-96250000D03*
%TO.P,U2,14,D5*%
%TO.N,D5*%
X149690000Y-96250000D03*
%TO.P,U2,15,O5*%
%TO.N,/D5'*%
X147150000Y-96250000D03*
%TO.P,U2,16,O6*%
%TO.N,unconnected-(U2-O6-Pad16)*%
X144610000Y-96250000D03*
%TO.P,U2,17,D6*%
%TO.N,GND*%
X142070000Y-96250000D03*
%TO.P,U2,18,D7*%
X139530000Y-96250000D03*
%TO.P,U2,19,O7*%
%TO.N,unconnected-(U2-O7-Pad19)*%
X136990000Y-96250000D03*
%TO.P,U2,20,VCC*%
%TO.N,+5V*%
X134450000Y-96250000D03*
%TD*%
D13*
%TO.P,R2,1*%
%TO.N,~{CS}*%
X112670000Y-96815000D03*
D14*
%TO.P,R2,2*%
%TO.N,GND*%
X112670000Y-104435000D03*
%TD*%
D10*
%TO.P,C4,1*%
%TO.N,+5V*%
X105465000Y-79660000D03*
%TO.P,C4,2*%
%TO.N,GND*%
X105465000Y-77160000D03*
%TD*%
D15*
%TO.P,D6,1,K*%
%TO.N,~{CS}*%
X115620000Y-96725000D03*
D16*
%TO.P,D6,2,A*%
%TO.N,A13*%
X115620000Y-104345000D03*
%TD*%
D15*
%TO.P,D5,1,K*%
%TO.N,~{CS}*%
X119080000Y-96715000D03*
D16*
%TO.P,D5,2,A*%
%TO.N,A14*%
X119080000Y-104335000D03*
%TD*%
D15*
%TO.P,D4,1,K*%
%TO.N,~{CS}*%
X122540000Y-96725000D03*
D16*
%TO.P,D4,2,A*%
%TO.N,A15*%
X122540000Y-104345000D03*
%TD*%
D17*
%TO.P,J1,A3,+5Vcc*%
%TO.N,+5V*%
X104119982Y-118590000D03*
%TO.P,J1,A4,+9Vcc*%
%TO.N,unconnected-(J1-+9Vcc-PadA4)*%
X106659982Y-118590000D03*
%TO.P,J1,A6,GND*%
%TO.N,GND*%
X111739982Y-118590000D03*
%TO.P,J1,A7,GND*%
X114279982Y-118590000D03*
%TO.P,J1,A8,CLOCK*%
%TO.N,unconnected-(J1-CLOCK-PadA8)*%
X116819982Y-118590000D03*
%TO.P,J1,A9,A0*%
%TO.N,A0*%
X119359982Y-118590000D03*
%TO.P,J1,A10,A1*%
%TO.N,A1*%
X121899982Y-118590000D03*
%TO.P,J1,A11,A2*%
%TO.N,A2*%
X124439982Y-118590000D03*
%TO.P,J1,A12,A3*%
%TO.N,A3*%
X126979982Y-118590000D03*
%TO.P,J1,A13,A15*%
%TO.N,A15*%
X129519982Y-118590000D03*
%TO.P,J1,A14,A14*%
%TO.N,A14*%
X132059982Y-118590000D03*
%TO.P,J1,A15,A13*%
%TO.N,A13*%
X134599982Y-118590000D03*
%TO.P,J1,A16,A12*%
%TO.N,A12*%
X137139982Y-118590000D03*
%TO.P,J1,A17,A11*%
%TO.N,A11*%
X139679982Y-118590000D03*
%TO.P,J1,A18,A10*%
%TO.N,A10*%
X142219982Y-118590000D03*
%TO.P,J1,A19,A9*%
%TO.N,A9*%
X144759982Y-118590000D03*
%TO.P,J1,A20,A8*%
%TO.N,A8*%
X147299982Y-118590000D03*
%TO.P,J1,A21,A7*%
%TO.N,A7*%
X149839982Y-118590000D03*
%TO.P,J1,A22,A6*%
%TO.N,A6*%
X152379982Y-118590000D03*
%TO.P,J1,A23,A5*%
%TO.N,A5*%
X154919982Y-118590000D03*
%TO.P,J1,A24,A4*%
%TO.N,A4*%
X157459982Y-118590000D03*
%TO.P,J1,A25,~{ROMCS}*%
%TO.N,+5V*%
X159999982Y-118590000D03*
%TD*%
D11*
%TO.P,U4,1,S*%
%TO.N,~{RFSH}*%
X108660000Y-82330000D03*
D12*
%TO.P,U4,2,I0a*%
%TO.N,Net-(U3-QA)*%
X111200000Y-82330000D03*
%TO.P,U4,3,I1a*%
%TO.N,A0*%
X113740000Y-82330000D03*
%TO.P,U4,4,Za*%
%TO.N,/A0'*%
X116280000Y-82330000D03*
%TO.P,U4,5,I0b*%
%TO.N,Net-(U3-QB)*%
X118820000Y-82330000D03*
%TO.P,U4,6,I1b*%
%TO.N,A1*%
X121360000Y-82330000D03*
%TO.P,U4,7,Zb*%
%TO.N,/A1'*%
X123900000Y-82330000D03*
%TO.P,U4,8,GND*%
%TO.N,GND*%
X126440000Y-82330000D03*
%TO.P,U4,9,Zc*%
%TO.N,/A2'*%
X126440000Y-74710000D03*
%TO.P,U4,10,I1c*%
%TO.N,A2*%
X123900000Y-74710000D03*
%TO.P,U4,11,I0c*%
%TO.N,Net-(U3-QC)*%
X121360000Y-74710000D03*
%TO.P,U4,12,Zd*%
%TO.N,unconnected-(U4-Zd-Pad12)*%
X118820000Y-74710000D03*
%TO.P,U4,13,I1d*%
%TO.N,unconnected-(U4-I1d-Pad13)*%
X116280000Y-74710000D03*
%TO.P,U4,14,I0d*%
%TO.N,unconnected-(U4-I0d-Pad14)*%
X113740000Y-74710000D03*
%TO.P,U4,15,E*%
%TO.N,GND*%
X111200000Y-74710000D03*
%TO.P,U4,16,VCC*%
%TO.N,+5V*%
X108660000Y-74710000D03*
%TD*%
D10*
%TO.P,C1,1*%
%TO.N,+5V*%
X101550000Y-77280000D03*
%TO.P,C1,2*%
%TO.N,GND*%
X101550000Y-79780000D03*
%TD*%
D11*
%TO.P,U5,1,S*%
%TO.N,~{RFSH}*%
X108600000Y-92540000D03*
D12*
%TO.P,U5,2,I0a*%
%TO.N,/D0'*%
X111140000Y-92540000D03*
%TO.P,U5,3,I1a*%
%TO.N,A3*%
X113680000Y-92540000D03*
%TO.P,U5,4,Za*%
%TO.N,/A3'*%
X116220000Y-92540000D03*
%TO.P,U5,5,I0b*%
%TO.N,/D1'*%
X118760000Y-92540000D03*
%TO.P,U5,6,I1b*%
%TO.N,A4*%
X121300000Y-92540000D03*
%TO.P,U5,7,Zb*%
%TO.N,/A4'*%
X123840000Y-92540000D03*
%TO.P,U5,8,GND*%
%TO.N,GND*%
X126380000Y-92540000D03*
%TO.P,U5,9,Zc*%
%TO.N,/A5'*%
X126380000Y-84920000D03*
%TO.P,U5,10,I1c*%
%TO.N,A5*%
X123840000Y-84920000D03*
%TO.P,U5,11,I0c*%
%TO.N,/D2'*%
X121300000Y-84920000D03*
%TO.P,U5,12,Zd*%
%TO.N,/A6'*%
X118760000Y-84920000D03*
%TO.P,U5,13,I1d*%
%TO.N,A6*%
X116220000Y-84920000D03*
%TO.P,U5,14,I0d*%
%TO.N,/D3'*%
X113680000Y-84920000D03*
%TO.P,U5,15,E*%
%TO.N,GND*%
X111140000Y-84920000D03*
%TO.P,U5,16,VCC*%
%TO.N,+5V*%
X108600000Y-84920000D03*
%TD*%
D18*
%TO.N,A10*%
X126116400Y-98411500D03*
%TO.N,A4*%
X154798400Y-101260000D03*
%TO.N,A3*%
X120777500Y-104526200D03*
X116100300Y-100056800D03*
%TO.N,D7*%
X103673300Y-113053700D03*
%TO.N,D5*%
X146661800Y-101894500D03*
X101782800Y-109283300D03*
%TO.N,A12*%
X123823100Y-98228900D03*
%TO.N,~{HALT}*%
X141509100Y-109689500D03*
%TO.N,A11*%
X124569700Y-91144700D03*
%TO.N,D6*%
X102489400Y-109974800D03*
%TO.N,~{RFSH}*%
X160070700Y-112583800D03*
%TO.N,A6*%
X149354000Y-100234200D03*
X119724900Y-88147400D03*
%TO.N,A9*%
X132875100Y-104384800D03*
X104307900Y-98830600D03*
%TO.N,A7*%
X141295600Y-110945400D03*
X147018600Y-110945400D03*
X144973900Y-86660000D03*
%TO.N,D4*%
X149468400Y-106798400D03*
X148257400Y-105282400D03*
%TO.N,A5*%
X151423300Y-99601000D03*
%TO.N,/D3'*%
X142471000Y-98847000D03*
X129410600Y-87238400D03*
X117165600Y-87238400D03*
%TO.N,/D2'*%
X124793700Y-89552600D03*
%TO.N,~{NMI}*%
X146736300Y-91053500D03*
X140707300Y-109577400D03*
%TD*%
D19*
%TO.N,GND*%
X109540900Y-93641700D02*
X109728500Y-93454100D01*
X112670000Y-113454600D02*
X114256300Y-113454600D01*
X114280000Y-118590000D02*
X114280000Y-113478300D01*
X144695000Y-84760000D02*
X144695000Y-85861700D01*
X126380000Y-93090800D02*
X126380000Y-92540000D01*
X128498500Y-89319800D02*
X126380000Y-91438300D01*
X140986700Y-93051600D02*
X140986700Y-89570000D01*
X111200000Y-74710000D02*
X111200000Y-75811700D01*
X157395000Y-92930800D02*
X157395000Y-93481700D01*
X134450000Y-103870000D02*
X133348300Y-103870000D01*
X136655000Y-89830000D02*
X132096800Y-85271800D01*
X82118300Y-107018300D02*
X81890000Y-107018300D01*
X139530000Y-94508300D02*
X139613800Y-94424500D01*
X157395000Y-92930800D02*
X157395000Y-92380000D01*
X126380000Y-92540000D02*
X126380000Y-91438300D01*
X110091900Y-77160000D02*
X110091900Y-76919800D01*
X112670000Y-104435000D02*
X112670000Y-103433300D01*
X132096800Y-85271800D02*
X132096800Y-84303200D01*
X111140000Y-83818300D02*
X111015600Y-83818300D01*
X140986700Y-89570000D02*
X144695000Y-85861700D01*
X112670000Y-104435000D02*
X112670000Y-105436700D01*
X136655000Y-91465800D02*
X136655000Y-89830000D01*
X136810000Y-79590000D02*
X141118300Y-75281700D01*
X107615700Y-93641700D02*
X105690000Y-91716000D01*
X139613800Y-94424500D02*
X140986700Y-93051600D01*
X157460000Y-82160000D02*
X157460000Y-83261700D01*
X83329800Y-97500600D02*
X83329800Y-105806800D01*
X139530000Y-96250000D02*
X139530000Y-95148300D01*
X130261300Y-99768700D02*
X131370000Y-98660000D01*
X111140000Y-90740000D02*
X111140000Y-84920000D01*
X110091900Y-77160000D02*
X105465000Y-77160000D01*
X133348300Y-103870000D02*
X133261400Y-103783100D01*
X101550000Y-79860900D02*
X97420900Y-83990000D01*
X132096800Y-84303200D02*
X136810000Y-79590000D01*
X139613800Y-94424500D02*
X136655000Y-91465800D01*
X128498500Y-85271800D02*
X132096800Y-85271800D01*
X112670000Y-103433300D02*
X109540900Y-100304200D01*
X139530000Y-95148300D02*
X139530000Y-94508300D01*
X102845000Y-79780000D02*
X101550000Y-79780000D01*
X156283700Y-84209700D02*
X157231700Y-83261700D01*
X111740000Y-113478300D02*
X112646300Y-113478300D01*
X96840400Y-83990000D02*
X83329800Y-97500600D01*
X131370000Y-98660000D02*
X131370000Y-98631700D01*
X157310000Y-103870000D02*
X157310000Y-102768300D01*
X110091900Y-82894600D02*
X110091900Y-77160000D01*
X109540900Y-93641700D02*
X107615700Y-93641700D01*
X158412900Y-101665400D02*
X157310000Y-102768300D01*
X132384400Y-103783100D02*
X130261300Y-101660000D01*
X112670000Y-105436700D02*
X112670000Y-113454600D01*
X157395000Y-93481700D02*
X158412900Y-94499600D01*
X83329800Y-105806800D02*
X82118300Y-107018300D01*
X158412900Y-94499600D02*
X158412900Y-101665400D01*
X105690000Y-91716000D02*
X105690000Y-90000000D01*
X126440000Y-82330000D02*
X126440000Y-83431700D01*
X157395000Y-92380000D02*
X157395000Y-91278300D01*
X133261400Y-103783100D02*
X132384400Y-103783100D01*
X97420900Y-83990000D02*
X96840400Y-83990000D01*
X109728500Y-93454100D02*
X109728500Y-92151500D01*
X157231700Y-83261700D02*
X157460000Y-83261700D01*
X101550000Y-79780000D02*
X101550000Y-79860900D01*
X142220000Y-74540000D02*
X141118300Y-74540000D01*
X128498500Y-85271800D02*
X128498500Y-89319800D01*
X157395000Y-91278300D02*
X156283700Y-90167000D01*
X109540900Y-100304200D02*
X109540900Y-93641700D01*
X126658400Y-83431700D02*
X128498500Y-85271800D01*
X130261300Y-101660000D02*
X130261300Y-99768700D01*
X111015600Y-83818300D02*
X110091900Y-82894600D01*
X81890000Y-108120000D02*
X81890000Y-107018300D01*
X126440000Y-83431700D02*
X126658400Y-83431700D01*
X114256300Y-113454600D02*
X114280000Y-113478300D01*
X109728500Y-92151500D02*
X111140000Y-90740000D01*
X105465000Y-77160000D02*
X102845000Y-79780000D01*
X112646300Y-113478300D02*
X112670000Y-113454600D01*
X141118300Y-75281700D02*
X141118300Y-74540000D01*
X126380000Y-93090800D02*
X126380000Y-93641700D01*
X111140000Y-84920000D02*
X111140000Y-83818300D01*
X131370000Y-98631700D02*
X126380000Y-93641700D01*
X111740000Y-118590000D02*
X111740000Y-113478300D01*
X110091900Y-76919800D02*
X111200000Y-75811700D01*
X156283700Y-90167000D02*
X156283700Y-84209700D01*
%TO.N,A13*%
X134600000Y-113478300D02*
X123946500Y-102824800D01*
X118191900Y-102824800D02*
X116671700Y-104345000D01*
X115620000Y-104345000D02*
X116671700Y-104345000D01*
X134600000Y-118590000D02*
X134600000Y-113478300D01*
X123946500Y-102824800D02*
X118191900Y-102824800D01*
%TO.N,A14*%
X132060000Y-118590000D02*
X132060000Y-112340300D01*
X132060000Y-112340300D02*
X122946200Y-103226500D01*
X120131700Y-104321200D02*
X120131700Y-104335000D01*
X119080000Y-104335000D02*
X120131700Y-104335000D01*
X121226400Y-103226500D02*
X120131700Y-104321200D01*
X122946200Y-103226500D02*
X121226400Y-103226500D01*
%TO.N,A15*%
X122540000Y-104345000D02*
X122540000Y-105396700D01*
X129520000Y-112376700D02*
X122540000Y-105396700D01*
X129520000Y-118590000D02*
X129520000Y-112376700D01*
%TO.N,A10*%
X126116400Y-98411500D02*
X126116400Y-98476900D01*
X141117800Y-113478300D02*
X142220000Y-113478300D01*
X126116400Y-98476900D02*
X141117800Y-113478300D01*
X142220000Y-118590000D02*
X142220000Y-113478300D01*
%TO.N,A4*%
X157460000Y-113478300D02*
X156208300Y-112226600D01*
X157460000Y-118590000D02*
X157460000Y-113478300D01*
X156208300Y-102669900D02*
X154798400Y-101260000D01*
X156208300Y-112226600D02*
X156208300Y-102669900D01*
%TO.N,A3*%
X114114100Y-94075800D02*
X114114100Y-98070600D01*
X113680000Y-92540000D02*
X113680000Y-93641700D01*
X114114100Y-98070600D02*
X116100300Y-100056800D01*
X113680000Y-93641700D02*
X114114100Y-94075800D01*
X120777500Y-104526200D02*
X126980000Y-110728700D01*
X126980000Y-110728700D02*
X126980000Y-118590000D01*
%TO.N,D7*%
X97130000Y-99061700D02*
X97358300Y-99061700D01*
X97358300Y-99061700D02*
X103673300Y-105376700D01*
X103673300Y-105376700D02*
X103673300Y-113053700D01*
X97130000Y-97960000D02*
X97130000Y-99061700D01*
%TO.N,A0*%
X113674200Y-106061000D02*
X119360000Y-111746800D01*
X112542800Y-84491200D02*
X112542800Y-93971600D01*
X113740000Y-82330000D02*
X113740000Y-83431700D01*
X113674200Y-95103000D02*
X113674200Y-106061000D01*
X112542800Y-93971600D02*
X113674200Y-95103000D01*
X119360000Y-111746800D02*
X119360000Y-118590000D01*
X113740000Y-83431700D02*
X113602300Y-83431700D01*
X113602300Y-83431700D02*
X112542800Y-84491200D01*
%TO.N,D5*%
X146661800Y-101894500D02*
X146661800Y-100379900D01*
X101782800Y-109283300D02*
X101782800Y-108566200D01*
X149690000Y-96250000D02*
X149690000Y-97351700D01*
X146661800Y-100379900D02*
X149690000Y-97351700D01*
X97130000Y-103040000D02*
X97130000Y-104141700D01*
X101782800Y-108566200D02*
X97358300Y-104141700D01*
X97358300Y-104141700D02*
X97130000Y-104141700D01*
%TO.N,A2*%
X125182600Y-88968900D02*
X125182600Y-77094300D01*
X120863700Y-94657800D02*
X122474100Y-93047400D01*
X124655200Y-90154300D02*
X125042900Y-90154300D01*
X122474100Y-92335400D02*
X124655200Y-90154300D01*
X125395400Y-89181700D02*
X125182600Y-88968900D01*
X123207400Y-113478300D02*
X114541200Y-104812100D01*
X122474100Y-93047400D02*
X122474100Y-92335400D01*
X124440000Y-113478300D02*
X123207400Y-113478300D01*
X114541200Y-103936400D02*
X120863700Y-97613900D01*
X125182600Y-77094300D02*
X123900000Y-75811700D01*
X124440000Y-118590000D02*
X124440000Y-113478300D01*
X120863700Y-97613900D02*
X120863700Y-94657800D01*
X125395400Y-89801800D02*
X125395400Y-89181700D01*
X114541200Y-104812100D02*
X114541200Y-103936400D01*
X125042900Y-90154300D02*
X125395400Y-89801800D01*
X123900000Y-74710000D02*
X123900000Y-75811700D01*
%TO.N,~{CS}*%
X98235300Y-93441300D02*
X97358300Y-94318300D01*
X97130000Y-91441700D02*
X97267700Y-91441700D01*
X97130000Y-90340000D02*
X97130000Y-91441700D01*
X97267700Y-91441700D02*
X98235300Y-92409300D01*
X97358300Y-94318300D02*
X97130000Y-94318300D01*
X97130000Y-95420000D02*
X97130000Y-94318300D01*
X98235300Y-92409300D02*
X98235300Y-93441300D01*
%TO.N,A12*%
X137140000Y-113478300D02*
X123823100Y-100161400D01*
X123823100Y-100161400D02*
X123823100Y-98228900D01*
X137140000Y-118590000D02*
X137140000Y-113478300D01*
%TO.N,~{HALT}*%
X149775000Y-92380000D02*
X149775000Y-94111700D01*
X149775000Y-94111700D02*
X148252900Y-95633800D01*
X148252900Y-96705200D02*
X143340000Y-101618100D01*
X143340000Y-107858600D02*
X141509100Y-109689500D01*
X143340000Y-101618100D02*
X143340000Y-107858600D01*
X148252900Y-95633800D02*
X148252900Y-96705200D01*
%TO.N,A11*%
X124985100Y-91560100D02*
X124569700Y-91144700D01*
X139680000Y-118590000D02*
X139680000Y-113478300D01*
X139680000Y-113478300D02*
X124985100Y-98783400D01*
X124985100Y-98783400D02*
X124985100Y-91560100D01*
%TO.N,D6*%
X97130000Y-101601700D02*
X97267700Y-101601700D01*
X97130000Y-100500000D02*
X97130000Y-101601700D01*
X102489400Y-106823400D02*
X102489400Y-109974800D01*
X97267700Y-101601700D02*
X102489400Y-106823400D01*
%TO.N,~{RFSH}*%
X140781700Y-82160000D02*
X140781700Y-82022300D01*
X139680000Y-82160000D02*
X140781700Y-82160000D01*
X109718700Y-90319600D02*
X108600000Y-91438300D01*
X142179400Y-80624600D02*
X157503400Y-80624600D01*
X108792500Y-83431700D02*
X109718700Y-84357900D01*
X108660000Y-82330000D02*
X108660000Y-83431700D01*
X108600000Y-92540000D02*
X108600000Y-91438300D01*
X160070700Y-83191900D02*
X160070700Y-112583800D01*
X157503400Y-80624600D02*
X160070700Y-83191900D01*
X140781700Y-82022300D02*
X142179400Y-80624600D01*
X108660000Y-83431700D02*
X108792500Y-83431700D01*
X109718700Y-84357900D02*
X109718700Y-90319600D01*
%TO.N,A8*%
X146048300Y-112226600D02*
X147300000Y-113478300D01*
X150981100Y-84432300D02*
X150981100Y-97312400D01*
X148744900Y-99548600D02*
X148744900Y-100717000D01*
X152380000Y-82160000D02*
X152380000Y-83261700D01*
X152380000Y-83261700D02*
X152151700Y-83261700D01*
X152151700Y-83261700D02*
X150981100Y-84432300D01*
X150981100Y-97312400D02*
X148744900Y-99548600D01*
X148744900Y-100717000D02*
X146048300Y-103413600D01*
X146048300Y-103413600D02*
X146048300Y-112226600D01*
X147300000Y-118590000D02*
X147300000Y-113478300D01*
%TO.N,A1*%
X117635800Y-99406600D02*
X114108500Y-102933900D01*
X121360000Y-83431700D02*
X121222300Y-83431700D01*
X121222300Y-83431700D02*
X120191500Y-84462500D01*
X120343700Y-88426400D02*
X117635800Y-91134300D01*
X120191500Y-87423800D02*
X120343700Y-87576000D01*
X120343700Y-87576000D02*
X120343700Y-88426400D01*
X117635800Y-91134300D02*
X117635800Y-99406600D01*
X114108500Y-105686800D02*
X121900000Y-113478300D01*
X121900000Y-118590000D02*
X121900000Y-113478300D01*
X121360000Y-82330000D02*
X121360000Y-83431700D01*
X120191500Y-84462500D02*
X120191500Y-87423800D01*
X114108500Y-102933900D02*
X114108500Y-105686800D01*
%TO.N,A6*%
X152380000Y-110567400D02*
X147655700Y-105843100D01*
X147655700Y-105033300D02*
X148325000Y-104364000D01*
X148325000Y-102864800D02*
X149354000Y-101835800D01*
X116220000Y-84920000D02*
X117321700Y-84920000D01*
X152380000Y-118590000D02*
X152380000Y-110567400D01*
X117321700Y-85744200D02*
X119724900Y-88147400D01*
X149354000Y-101835800D02*
X149354000Y-100234200D01*
X147655700Y-105843100D02*
X147655700Y-105033300D01*
X148325000Y-104364000D02*
X148325000Y-102864800D01*
X117321700Y-84920000D02*
X117321700Y-85744200D01*
%TO.N,A9*%
X97130000Y-85260000D02*
X97130000Y-86361700D01*
X97358300Y-86361700D02*
X97130000Y-86361700D01*
X144082300Y-112800600D02*
X141290900Y-112800600D01*
X144760000Y-118590000D02*
X144760000Y-113478300D01*
X99481500Y-94004200D02*
X99481500Y-88484900D01*
X104307900Y-98830600D02*
X99481500Y-94004200D01*
X141290900Y-112800600D02*
X132875100Y-104384800D01*
X99481500Y-88484900D02*
X97358300Y-86361700D01*
X144760000Y-113478300D02*
X144082300Y-112800600D01*
%TO.N,A7*%
X141224100Y-110945400D02*
X138421800Y-108143100D01*
X138421800Y-103362000D02*
X142335100Y-99448700D01*
X149551500Y-113478300D02*
X147018600Y-110945400D01*
X143340000Y-98828900D02*
X143340000Y-88293900D01*
X149840000Y-118590000D02*
X149840000Y-113478300D01*
X141295600Y-110945400D02*
X141224100Y-110945400D01*
X142720200Y-99448700D02*
X143340000Y-98828900D01*
X142335100Y-99448700D02*
X142720200Y-99448700D01*
X143340000Y-88293900D02*
X144973900Y-86660000D01*
X149840000Y-113478300D02*
X149551500Y-113478300D01*
X138421800Y-108143100D02*
X138421800Y-103362000D01*
%TO.N,D4*%
X149566000Y-105598000D02*
X149468400Y-105598000D01*
X150807800Y-104356200D02*
X149566000Y-105598000D01*
X150807800Y-98773900D02*
X150807800Y-104356200D01*
X152230000Y-96250000D02*
X152230000Y-97351700D01*
X152230000Y-97351700D02*
X150807800Y-98773900D01*
X149468400Y-105598000D02*
X149468400Y-106798400D01*
X149468400Y-105598000D02*
X148573000Y-105598000D01*
X148573000Y-105598000D02*
X148257400Y-105282400D01*
%TO.N,A5*%
X154920000Y-118590000D02*
X154920000Y-113478300D01*
X153500000Y-112058300D02*
X153500000Y-101677700D01*
X154920000Y-113478300D02*
X153500000Y-112058300D01*
X153500000Y-101677700D02*
X151423300Y-99601000D01*
%TO.N,/A2'*%
X81890000Y-92880000D02*
X81890000Y-91778300D01*
X125338300Y-74710000D02*
X125338300Y-74572300D01*
X83329800Y-87315300D02*
X83329800Y-90566800D01*
X82118300Y-91778300D02*
X81890000Y-91778300D01*
X126440000Y-74710000D02*
X125338300Y-74710000D01*
X123515300Y-72749300D02*
X97895800Y-72749300D01*
X97895800Y-72749300D02*
X83329800Y-87315300D01*
X83329800Y-90566800D02*
X82118300Y-91778300D01*
X125338300Y-74572300D02*
X123515300Y-72749300D01*
%TO.N,/A0'*%
X112470000Y-77418300D02*
X116280000Y-81228300D01*
X100510800Y-78381700D02*
X102260800Y-78381700D01*
X97442500Y-81450000D02*
X100510800Y-78381700D01*
X112470000Y-74365500D02*
X112470000Y-77418300D01*
X102260800Y-78381700D02*
X107039500Y-73603000D01*
X116280000Y-82330000D02*
X116280000Y-81228300D01*
X81890000Y-96858300D02*
X82027800Y-96858300D01*
X81890000Y-97960000D02*
X81890000Y-96858300D01*
X83158000Y-95728100D02*
X83158000Y-95126900D01*
X82027800Y-96858300D02*
X83158000Y-95728100D01*
X96834900Y-81450000D02*
X97442500Y-81450000D01*
X83158000Y-95126900D02*
X96834900Y-81450000D01*
X111707500Y-73603000D02*
X112470000Y-74365500D01*
X107039500Y-73603000D02*
X111707500Y-73603000D01*
%TO.N,/A1'*%
X115010000Y-74410100D02*
X115010000Y-75032500D01*
X81890000Y-94318300D02*
X82118300Y-94318300D01*
X96822600Y-78910000D02*
X98291300Y-78910000D01*
X121834400Y-81228300D02*
X122798300Y-82192200D01*
X104025900Y-73175400D02*
X113775300Y-73175400D01*
X115010000Y-75032500D02*
X121205800Y-81228300D01*
X81890000Y-95420000D02*
X81890000Y-94318300D01*
X82118300Y-94318300D02*
X90967300Y-85469300D01*
X98291300Y-78910000D02*
X104025900Y-73175400D01*
X90967300Y-85469300D02*
X90967300Y-84765300D01*
X122798300Y-82192200D02*
X122798300Y-82330000D01*
X90967300Y-84765300D02*
X96822600Y-78910000D01*
X113775300Y-73175400D02*
X115010000Y-74410100D01*
X121205800Y-81228300D02*
X121834400Y-81228300D01*
X123900000Y-82330000D02*
X122798300Y-82330000D01*
%TO.N,/D5'*%
X149840000Y-82160000D02*
X149840000Y-83261700D01*
X149702300Y-83261700D02*
X148336700Y-84627300D01*
X148336700Y-84627300D02*
X148336700Y-93961600D01*
X149840000Y-83261700D02*
X149702300Y-83261700D01*
X147150000Y-96250000D02*
X147150000Y-95148300D01*
X148336700Y-93961600D02*
X147150000Y-95148300D01*
%TO.N,/D3'*%
X129571400Y-87238400D02*
X129410600Y-87238400D01*
X114781700Y-85057700D02*
X116962300Y-87238300D01*
X116962300Y-87238300D02*
X117165600Y-87238300D01*
X117165600Y-87238300D02*
X117165600Y-87238400D01*
X113680000Y-84920000D02*
X114781700Y-84920000D01*
X138260000Y-95927000D02*
X129571400Y-87238400D01*
X114781700Y-84920000D02*
X114781700Y-85057700D01*
X140557400Y-98847000D02*
X138260000Y-96549600D01*
X142471000Y-98847000D02*
X140557400Y-98847000D01*
X138260000Y-96549600D02*
X138260000Y-95927000D01*
%TO.N,/D2'*%
X124793700Y-89515400D02*
X124793700Y-89552600D01*
X121300000Y-84920000D02*
X121300000Y-86021700D01*
X121300000Y-86021700D02*
X124793700Y-89515400D01*
%TO.N,/D4'*%
X144211000Y-81042400D02*
X152825100Y-81042400D01*
X153668300Y-94046600D02*
X154770000Y-95148300D01*
X154770000Y-96250000D02*
X154770000Y-95148300D01*
X142220000Y-82160000D02*
X143321700Y-82160000D01*
X143321700Y-81931700D02*
X144211000Y-81042400D01*
X153668300Y-81885600D02*
X153668300Y-94046600D01*
X152825100Y-81042400D02*
X153668300Y-81885600D01*
X143321700Y-82160000D02*
X143321700Y-81931700D01*
%TO.N,+5V*%
X107498300Y-84920000D02*
X107498300Y-85691700D01*
X139615000Y-90290000D02*
X139615000Y-92380000D01*
X138525400Y-79815600D02*
X138525400Y-84705600D01*
X134450000Y-98080000D02*
X131370000Y-101160000D01*
X138525400Y-84705600D02*
X138579800Y-84760000D01*
X134450000Y-96250000D02*
X134450000Y-98080000D01*
X104120000Y-118590000D02*
X104120000Y-113478300D01*
X104559500Y-88630500D02*
X105690000Y-87500000D01*
X160000000Y-118590000D02*
X160000000Y-113478300D01*
X143325900Y-74036300D02*
X143325900Y-75015100D01*
X143325900Y-75015100D02*
X138525400Y-79815600D01*
X157395000Y-85861700D02*
X159314800Y-87781500D01*
X138579800Y-84760000D02*
X136655000Y-86684800D01*
X136655000Y-86684800D02*
X136655000Y-87330000D01*
X108600000Y-84920000D02*
X107498300Y-84920000D01*
X105465000Y-82886700D02*
X107498300Y-84920000D01*
X107498300Y-85691700D02*
X105690000Y-87500000D01*
X140799600Y-73420400D02*
X142710000Y-73420400D01*
X138579800Y-84760000D02*
X138646700Y-84760000D01*
X157395000Y-84760000D02*
X157395000Y-85861700D01*
X142710000Y-73420400D02*
X143325900Y-74036300D01*
X139680000Y-74540000D02*
X140799600Y-73420400D01*
X159314800Y-112793100D02*
X160000000Y-113478300D01*
X139615000Y-84760000D02*
X138646700Y-84760000D01*
X104559500Y-98231300D02*
X104559500Y-88630500D01*
X136655000Y-87330000D02*
X139615000Y-90290000D01*
X104909600Y-98581400D02*
X104559500Y-98231300D01*
X139680000Y-74540000D02*
X138578300Y-74540000D01*
X104909600Y-112688700D02*
X104909600Y-98581400D01*
X159314800Y-87781500D02*
X159314800Y-112793100D01*
X105465000Y-79660000D02*
X105465000Y-82886700D01*
X136810000Y-77090000D02*
X138578300Y-75321700D01*
X97130000Y-75100000D02*
X97130000Y-77640000D01*
X138578300Y-75321700D02*
X138578300Y-74540000D01*
X104120000Y-113478300D02*
X104909600Y-112688700D01*
%TO.N,~{NMI}*%
X145952200Y-97273000D02*
X140707300Y-102517900D01*
X146736300Y-91053500D02*
X145952200Y-91837600D01*
X140707300Y-102517900D02*
X140707300Y-109577400D01*
X145952200Y-91837600D02*
X145952200Y-97273000D01*
%TD*%
M02*
